<?xml version="1.0" encoding="utf-8"?>
<svg version="1.1" xmlns:xlink="http://www.w3.org/1999/xlink" width="23px" height="22px" xmlns="http://www.w3.org/2000/svg">
  <g transform="matrix(1 0 0 1 -12 -72 )">
    <path d="M 22.916666658203127 7  L 0.1666666582031251 7  L 0.1666666582031251 2.604166658203124  C 0.16750622202067644 1.856629089131379  0.7732957727093864 1.2508395498012215  1.520833341796875 1.25  L 4.5 1.25  L 4.5 2.874999999999999  C 4.5 3.1741542418288216  4.742512429069615 3.416666670898437  5.041666670898437 3.416666670898437  C 5.34082091272726 3.416666670898437  5.583333341796876 3.1741542418288216  5.583333341796876 2.874999999999999  L 5.583333341796876 1.25  L 11 1.25  L 11 2.874999999999999  C 11 3.1741542418288224  11.242512429069617 3.416666670898437  11.541666670898435 3.416666670898437  C 11.84082091272726 3.416666670898437  12.083333341796873 3.1741542418288216  12.083333341796873 2.874999999999999  L 12.083333341796873 1.25  L 17.5 1.25  L 17.499999999999996 2.874999999999999  C 17.499999999999996 3.1741542418288216  17.742512429069613 3.416666670898437  18.041666670898437 3.416666670898437  C 18.340820912727256 3.416666670898437  18.583333341796873 3.1741542418288216  18.583333341796873 2.874999999999999  L 18.583333341796873 1.25  L 21.562499999999996 1.25  C 22.310037559171835 1.2508395637907075  22.915827094412414 1.8566290990312881  22.916666658203127 2.604166658203125  L 22.916666658203127 7  Z M 12.083333341796873 1.2499999999999996  L 12.083333341796873 0.7083333417968743  C 12.083333341796873 0.409179099968052  11.840820912727256 0.16666667089843656  11.541666670898435 0.16666667089843656  C 11.242512429069613 0.16666667089843656  10.999999999999998 0.409179099968052  10.999999999999998 0.7083333417968743  L 10.999999999999998 1.2499999999999996  L 12.083333341796873 1.2499999999999996  Z M 5.583333341796874 1.2499999999999996  L 5.583333341796874 0.7083333417968743  C 5.583333341796874 0.409179099968052  5.340820912727257 0.16666667089843745  5.041666670898436 0.16666667089843745  C 4.742512429069614 0.16666667089843745  4.499999999999998 0.4091790999680524  4.499999999999998 0.7083333417968743  L 4.499999999999999 1.2499999999999996  L 5.583333341796874 1.2499999999999996  Z M 18.583333341796873 1.2499999999999996  L 18.583333341796873 0.7083333417968743  C 18.583333341796873 0.409179099968052  18.340820912727256 0.16666667089843656  18.041666670898437 0.16666667089843656  C 17.742512429069613 0.16666667089843656  17.499999999999996 0.409179099968052  17.499999999999996 0.7083333417968743  L 17.5 1.2499999999999996  L 18.583333341796873 1.2499999999999996  Z M 0.16666665820312465 8  L 23 8  L 23 20.479166658203123  C 22.9158271084019 21.22670422729061  22.310037569071746 21.832493777979323  21.562499999999996 21.833333341796877  L 1.520833341796875 21.833333341796873  C 0.7732957628094748 21.832493791968812  0.1675062080311882 21.22670423719052  0.16666665820312465 20.479166658203127  L 0.16666665820312465 8  Z M 3.958333341796875 17.499999999999996  C 4.2574875766142695 17.499999999999996  4.5 17.25748757661427  4.5 16.958333341796873  C 4.5 16.659179106979476  4.2574875766142695 16.416666683593746  3.958333341796875 16.416666683593746  C 3.6591791069794803 16.416666683593746  3.4166666835937503 16.659179106979476  3.4166666835937503 16.958333341796873  C 3.4166666835937503 17.25748757661427  3.6591791069794803 17.499999999999996  3.958333341796875 17.499999999999996  Z M 4.5 13.708333341796877  C 4.5 13.40917910697948  4.2574875766142695 13.166666683593753  3.958333341796875 13.166666683593753  C 3.6591791069794803 13.166666683593753  3.4166666835937503 13.40917910697948  3.4166666835937503 13.708333341796877  C 3.4166666835937503 14.00748757661427  3.6591791069794803 14.25  3.958333341796875 14.25  C 4.2574875766142695 14.25  4.5 14.00748757661427  4.5 13.708333341796877  Z M 3.958333341796875 10.999999999999998  C 4.2574875766142695 10.999999999999998  4.5 10.757487576614269  4.5 10.458333341796873  C 4.5 10.159179106979478  4.2574875766142695 9.916666683593748  3.958333341796875 9.916666683593748  C 3.6591791069794803 9.916666683593748  3.4166666835937503 10.159179106979478  3.4166666835937503 10.458333341796873  C 3.4166666835937503 10.757487576614269  3.6591791069794803 10.999999999999998  3.958333341796875 10.999999999999998  Z M 7.208333341796876 17.499999999999996  C 7.507487576614271 17.499999999999996  7.749999999999998 17.257487576614267  7.749999999999998 16.958333341796873  C 7.749999999999998 16.659179106979476  7.507487576614269 16.416666683593746  7.208333341796873 16.416666683593746  C 6.90917910697948 16.416666683593746  6.66666668359375 16.659179106979476  6.66666668359375 16.958333341796873  C 6.66666668359375 17.25748757661427  6.90917910697948 17.499999999999996  7.208333341796873 17.499999999999996  Z M 7.208333341796876 14.25  C 7.507487576614271 14.25  7.750000000000001 14.00748757661427  7.749999999999998 13.708333341796873  C 7.749999999999998 13.40917910697948  7.507487576614269 13.166666683593753  7.208333341796873 13.166666683593753  C 6.90917910697948 13.166666683593753  6.66666668359375 13.40917910697948  6.66666668359375 13.708333341796877  C 6.66666668359375 14.00748757661427  6.90917910697948 14.25  7.208333341796873 14.25  Z M 7.208333341796876 10.999999999999998  C 7.507487576614271 10.999999999999996  7.749999999999998 10.757487576614269  7.749999999999998 10.458333341796873  C 7.749999999999998 10.159179106979478  7.507487576614269 9.916666683593748  7.208333341796873 9.916666683593748  C 6.90917910697948 9.916666683593748  6.66666668359375 10.159179106979478  6.66666668359375 10.458333341796873  C 6.66666668359375 10.757487576614269  6.90917910697948 10.999999999999998  7.208333341796873 10.999999999999998  Z M 10.458333341796875 17.499999999999996  C 10.75748757661427 17.499999999999996  11 17.25748757661427  11 16.958333341796873  C 11 16.659179106979476  10.75748757661427 16.416666683593746  10.458333341796875 16.416666683593746  C 10.15917910697948 16.416666683593746  9.91666668359375 16.659179106979476  9.91666668359375 16.958333341796873  C 9.91666668359375 17.25748757661427  10.15917910697948 17.499999999999996  10.458333341796875 17.499999999999996  Z M 11 13.708333341796877  C 11 13.40917910697948  10.75748757661427 13.166666683593753  10.458333341796875 13.166666683593753  C 10.15917910697948 13.166666683593753  9.91666668359375 13.40917910697948  9.91666668359375 13.708333341796877  C 9.91666668359375 14.00748757661427  10.15917910697948 14.25  10.458333341796875 14.25  C 10.75748757661427 14.25  11 14.00748757661427  11 13.708333341796877  Z M 10.458333341796875 10.999999999999998  C 10.75748757661427 10.999999999999998  11 10.757487576614269  11 10.458333341796873  C 11 10.159179106979478  10.75748757661427 9.916666683593748  10.458333341796875 9.916666683593748  C 10.15917910697948 9.916666683593748  9.91666668359375 10.159179106979478  9.91666668359375 10.458333341796873  C 9.91666668359375 10.757487576614269  10.15917910697948 10.999999999999998  10.458333341796875 10.999999999999998  Z M 15.33333334179687 16.958333316406247  C 15.33333334179687 16.65917908158885  15.09082091841114 16.416666658203123  14.791666683593744 16.416666658203123  L 13.708333341796873 16.416666658203123  C 13.409179099968052 16.416666658203123  13.166666670898437 16.659179087272737  13.166666670898437 16.95833332910156  C 13.166666670898437 17.257487570930383  13.409179099968052 17.499999999999996  13.708333341796873 17.499999999999996  L 14.791666658203123 17.499999999999996  C 15.09082091841114 17.500000000000004  15.33333334179687 17.257487576614274  15.33333334179687 16.958333341796877  Z M 15.33333334179687 13.708333316406248  C 15.33333334179687 13.409179081588851  15.09082091841114 13.166666658203125  14.791666683593744 13.166666658203125  L 13.708333341796873 13.166666658203125  C 13.409179099968052 13.16666665820312  13.166666670898437 13.409179087272738  13.166666670898437 13.70833332910156  C 13.166666670898437 14.00748757093038  13.409179099968052 14.249999999999996  13.708333341796873 14.249999999999996  L 14.791666658203123 14.249999999999996  C 15.09082091841114 14.25  15.33333334179687 14.00748757661427  15.33333334179687 13.708333341796873  Z M 15.33333334179687 10.458333316406248  C 15.33333334179687 10.159179081588855  15.09082091841114 9.916666658203125  14.791666683593744 9.916666658203125  L 13.708333341796873 9.916666658203125  C 13.409179099968052 9.916666658203125  13.166666670898437 10.15917908727274  13.166666670898437 10.458333329101562  C 13.166666670898437 10.757487570930385  13.409179099968052 11  13.708333341796873 11  L 14.791666658203123 11  C 15.09082091841114 11  15.33333334179687 10.75748757661427  15.33333334179687 10.458333341796875  Z M 19.666666658203123 13.708333316406248  C 19.666666658203123 13.409179081588851  19.424154234817397 13.166666658203125  19.124999999999996 13.166666658203125  L 18.041666658203123 13.166666658203125  C 17.7425124163743 13.16666665820312  17.499999987304687 13.409179087272738  17.499999987304687 13.70833332910156  C 17.499999987304687 14.00748757093038  17.7425124163743 14.249999999999996  18.041666658203123 14.249999999999996  L 19.124999999999996 14.249999999999996  C 19.424154234817397 14.249999999999996  19.666666658203123 14.007487576614267  19.666666658203123 13.708333341796873  Z M 19.124999999999996 11  C 19.424154234817397 11  19.666666658203123 10.75748757661427  19.666666658203123 10.458333341796873  C 19.666666658203123 10.159179081588855  19.424154234817397 9.916666658203125  19.124999999999996 9.916666658203125  L 18.041666658203123 9.916666658203125  C 17.7425124163743 9.916666658203125  17.499999987304687 10.15917908727274  17.499999987304687 10.458333329101562  C 17.499999987304687 10.757487570930385  17.7425124163743 11  18.041666658203123 11  L 19.124999999999996 11  Z " fill-rule="nonzero" fill="#5c5c66" stroke="none" transform="matrix(1 0 0 1 12 72 )" />
  </g>
</svg>