<?xml version="1.0" encoding="utf-8"?>
<svg version="1.1" xmlns:xlink="http://www.w3.org/1999/xlink" width="92px" height="88px" xmlns="http://www.w3.org/2000/svg">
  <g transform="matrix(1 0 0 1 -27 -89 )">
    <path d="M 15.245270270270284 86.96875  C 14.856756756756772 87.203125  14.235135135135149 87.515625  13.691216216216215 87.515625  C 13.225 87.515625  12.758783783783786 87.359375  12.370270270270272 86.96875  C 11.515540540540542 86.265625  11.43783783783784 84.9375  12.137162162162165 84  L 19.907432432432433 74.859375  L 19.441216216216215 74.46875  C 9.650675675675673 66.578125  4.05608108108108 54.78125  4.05608108108108 42.20312500000001  C 4.05608108108108 37.359375  4.910810810810811 32.59375000000001  6.4648648648648654 28.0625  L 6.620270270270269 27.671875  L 6.3094594594594575 27.437500000000007  C 2.57972972972973 24.546875  0.4040540540540541 20.171875000000004  0.4040540540540541 15.484375  C 0.4040540540540541 7.203125000000002  7.0864864864864865 0.484375  15.322972972972972 0.484375  C 19.441216216216215 0.484375  23.248648648648647 2.125  26.045945945945945 5.015625  L 26.35675675675676 5.328125  L 26.74527027027027 5.171875  C 32.57297297297297 2.125  39.1 0.5625  45.704729729729735 0.5625  C 52.387162162162156 0.5625  59.147297297297285 2.28125  65.2081081081081 5.484374999999998  L 65.59662162162162 5.71875  L 65.90743243243244 5.40625  C 68.70472972972972 2.359375  72.66756756756759 0.5625000000000018  76.86351351351351 0.5625000000000018  C 85.10000000000001 0.5625000000000018  91.78243243243243 7.281250000000002  91.78243243243243 15.5625  C 91.78243243243243 20.562500000000004  89.29594594594595 25.25  85.1777027027027 28.0625  L 84.78918918918919 28.296874999999993  L 84.94459459459462 28.687499999999993  C 86.42094594594596 33.0625  87.19797297297299 37.59374999999999  87.19797297297299 42.35937499999999  C 87.19797297297299 55.01562499999999  81.6033783783784 66.8125  71.81283783783785 74.703125  L 71.34662162162164 75.015625  L 78.96148648648649 84.15625  C 79.35000000000001 84.546875  79.50540540540541 85.09375000000001  79.42770270270272 85.64062500000001  C 79.35000000000001 86.18750000000001  79.11689189189191 86.73437500000001  78.6506756756757 87.12500000000001  C 78.26216216216217 87.43750000000001  77.79594594594596 87.59375000000001  77.25202702702704 87.59375000000001  C 76.63040540540541 87.59375000000001  76.08648648648649 87.35937500000001  75.62027027027028 86.890625  L 67.69459459459462 77.515625  L 67.30608108108109 77.75  C 60.70135135135136 81.8125  53.1641891891892 84  45.47162162162164 84  C 37.70135135135137 84  30.164189189189212 81.8125  23.637162162162173 77.75  L 23.24864864864866 77.515625  L 15.245270270270284 86.96875  Z M 82.92432432432433 42.125  C 82.92432432432433 21.421874999999996  66.14054054054054 4.624999999999998  45.627027027027026 4.625  C 25.035810810810815 4.625  8.329729729729731 21.421874999999996  8.329729729729731 42.125  C 8.329729729729731 62.828125  25.035810810810815 79.625  45.627027027027026 79.625  C 66.21824324324325 79.625  82.92432432432433 62.828125  82.92432432432433 42.125  Z M 87.43108108108109 15.484374999999996  C 87.43108108108109 9.468749999999996  82.61351351351352 4.624999999999998  76.7081081081081 4.625  C 74.06621621621622 4.625  71.57972972972972 5.562500000000001  69.63716216216217 7.359375  L 69.09324324324325 7.828125  L 69.63716216216217 8.21875  C 75.15405405405406 12.203125  79.66081081081083 17.515625000000004  82.69121621621622 23.609375  L 83.00202702702704 24.234375  L 83.54594594594596 23.765625  C 86.03243243243244 21.734374999999996  87.43108108108109 18.687499999999996  87.43108108108109 15.484374999999996  Z M 22.160810810810805 7.0468750000000036  C 20.218243243243236 5.4843750000000036  17.80945945945945 4.6250000000000036  15.400675675675673 4.625  C 9.495270270270266 4.625  4.677702702702699 9.46875  4.677702702702699 15.40625  C 4.677702702702699 18.375  5.84324324324324 21.109375  7.941216216216213 23.140625  L 8.485135135135131 23.6875  L 8.795945945945943 23.062500000000007  C 11.904054054054052 17.046875000000004  16.48851351351351 11.734375000000004  22.08310810810811 7.906250000000007  L 22.704729729729728 7.515625000000007  L 22.160810810810805 7.0468750000000036  Z " fill-rule="nonzero" fill="#000000" stroke="none" transform="matrix(1 0 0 1 27 89 )" />
  </g>
</svg>