<?xml version="1.0" encoding="utf-8"?>
<svg version="1.1" xmlns:xlink="http://www.w3.org/1999/xlink" width="47px" height="47px" xmlns="http://www.w3.org/2000/svg">
  <g transform="matrix(1 0 0 1 -267 -291 )">
    <path d="M 9.4852 6.644499999999999  L 16.5181 6.649599999999999  L 21.4957 1.6719999999999997  C 22.6024 0.5652999999999997  24.397599999999997 0.5652999999999997  25.5043 1.6719999999999997  L 30.481900000000003 6.649599999999999  L 37.5199 6.649599999999999  C 39.0856 6.649599999999999  40.3555 7.9195  40.3555 9.4852  L 40.3555 16.523200000000003  L 45.3331 21.5008  C 46.439800000000005 22.6075  46.439800000000005 24.402700000000003  45.3331 25.509400000000007  L 40.3555 30.487000000000005  L 40.3555 37.525  C 40.3555 39.0907  39.0856 40.3606  37.5199 40.3606  L 30.481900000000003 40.3606  L 25.5043 45.328  C 24.397599999999997 46.43470000000001  22.6024 46.43470000000001  21.4957 45.328  L 16.5181 40.3504  L 9.480099999999998 40.3504  C 7.914399999999998 40.3504  6.644499999999999 39.0805  6.644499999999999 37.5148  L 6.644499999999999 30.476800000000004  L 1.6719999999999997 25.5043  C 0.5652999999999997 24.397599999999997  0.5652999999999997 22.6024  1.6719999999999997 21.4957  L 6.649599999999999 16.5181  L 6.649599999999999 9.480099999999998  C 6.649599999999999 7.914399999999998  7.9195 6.644499999999999  9.4852 6.644499999999999  Z M 13.2439 19.3894  L 10.75 19.3894  L 10.75 27.6106  L 13.2439 27.6106  L 13.2439 24.2854  L 15.967300000000002 24.2854  L 15.967300000000002 27.6106  L 18.4714 27.6106  L 18.4714 19.3894  L 15.967300000000002 19.3894  L 15.967300000000002 22.2658  L 13.2439 22.2658  L 13.2439 19.3894  Z M 20.91940000000001 20.378800000000002  C 20.18500000000001 21.1183  19.81780000000001 22.1638  19.817800000000002 23.5051  C 19.817800000000002 24.463900000000002  20.0014 25.264599999999998  20.373700000000003 25.907200000000003  C 20.746 26.544700000000002  21.2305 27.0139  21.827200000000005 27.309700000000003  C 22.423900000000003 27.6055  23.178700000000003 27.753400000000003  24.0865 27.753400000000003  C 24.9841 27.753400000000003  25.728700000000003 27.580000000000005  26.330500000000004 27.238300000000002  C 26.932300000000005 26.8966  27.391300000000008 26.417199999999998  27.707500000000007 25.8052  C 28.023700000000005 25.188100000000002  28.181800000000006 24.402700000000003  28.181800000000006 23.4439  C 28.181800000000006 22.123  27.819700000000005 21.0928  27.090400000000006 20.3584  C 26.361100000000008 19.624  25.330900000000007 19.256800000000002  23.98450000000001 19.256800000000002  C 22.67380000000001 19.256800000000002  21.653800000000007 19.629099999999998  20.91940000000001 20.378800000000002  Z M 22.7758 25.300299999999996  C 22.4647 24.943299999999994  22.311700000000002 24.34659999999999  22.311700000000002 23.5153  C 22.311700000000002 22.6789  22.4647 22.077099999999998  22.7707 21.715  C 23.076700000000002 21.352899999999998  23.4796 21.1693  23.984500000000004 21.1693  C 24.509800000000002 21.1693  24.922900000000006 21.3478  25.233999999999998 21.7048  C 25.540000000000006 22.061799999999998  25.693 22.6279  25.693 23.4031  C 25.693 24.3211  25.545099999999998 24.958599999999997  25.254399999999997 25.3156  C 24.958599999999997 25.672600000000003  24.545499999999997 25.845999999999997  24.01 25.845999999999997  C 23.489800000000002 25.845999999999997  23.076700000000002 25.662399999999998  22.7758 25.300299999999996  Z M 36.25 19.3894  L 28.666300000000007 19.3894  L 28.666300000000007 21.4192  L 31.211199999999998 21.4192  L 31.211199999999998 27.6106  L 33.705099999999995 27.6106  L 33.705099999999995 21.4192  L 36.25 21.4192  L 36.25 19.3894  Z " fill-rule="nonzero" fill="#464647" stroke="none" transform="matrix(1 0 0 1 267 291 )" />
  </g>
</svg>