<?xml version="1.0" encoding="utf-8"?>
<svg version="1.1" xmlns:xlink="http://www.w3.org/1999/xlink" width="40px" height="40px" xmlns="http://www.w3.org/2000/svg">
  <g transform="matrix(1 0 0 1 -77 -477 )">
    <path d="M 31.515625 35.430078124999994  C 36.298046875 31.859375  39.25 26.191796875  39.25 20  C 39.25 9.369531250000001  30.63046875 0.75  20 0.75  L 20 3.315234375  C 29.2125 3.315234375  36.684765625 10.783203125  36.684765625 20  C 36.684765625 25.47421875  34.025 30.471484375000003  29.736718749999994 33.55234375  L 29.736718749999994 29.1265625  L 27.171484375 29.1265625  L 27.171484375 37.9953125  L 36.139062499999994 37.9953125  L 36.139062499999994 35.430078124999994  L 31.515625 35.430078124999994  Z M 20 36.684765625  C 10.787500000000001 36.684765625  3.3152343749999993 29.2125  3.315234375 20  C 3.315234375 14.45703125  6.056640625 9.416796875  10.439453125 6.344531249999999  L 10.439453125 10.929296874999999  L 13.0046875 10.929296874999999  L 13.0046875 2.0648437499999996  L 4.04140625 2.0648437499999996  L 4.04140625 4.630078125000001  L 8.47578125 4.630078125000001  C 3.7191406249999996 8.20078125  0.75 13.82109375  0.75 20  C 0.75 30.63046875  9.369531250000001 39.25  20 39.25  L 20 36.684765625  Z " fill-rule="nonzero" fill="#000000" stroke="none" transform="matrix(1 0 0 1 77 477 )" />
  </g>
</svg>