<?xml version="1.0" encoding="utf-8"?>
<svg version="1.1" xmlns:xlink="http://www.w3.org/1999/xlink" width="46px" height="42px" xmlns="http://www.w3.org/2000/svg">
  <g transform="matrix(1 0 0 1 -74 -293 )">
    <path d="M 39.44573036321853 2.718573888175463  C 39.44573036321853 1.596734687759806  38.52630626409233 0.6873043288415275  37.39213916037541 0.6873043288415275  C 37.391820103152305 0.6873043288415275  37.3915010459314 0.6873044023890209  37.391181988742964 1  L 8.640905389594456 1  C 7.507166594962423 0.6879032670328407  6.588410587563152 1.597158112627909  6.588410587563152 2.7185738193181876  C 6.588410587563152 3.033754687319451  6.662560780166423 3.344611627659333  6.804994868595755 3.626551594746708  L 7.4908942928994104 4.985470919324598  C 7.782504257468612 5.562351453799238  8.020720819093665 6.163607270403396  8.203490466806178 6.781113179878027  L 6.587314186751331 6.781113179878027  C 3.184812902182577 6.781113179878027  0.426540626353008 9.509404235318193  0.426540626353008 12.87492181027207  L 0.426540626353008 17.40059038484992  C 0.42611460659277717 21.634274717351992  3.080829366730222 25.42412445842041  7.0883904523740755 26.910994371482168  L 9.973686037739931 27.97944216721386  C 10.563145907558447 28.199082191166553  11.22197443987306 28.138409713509247  11.760310370255446 27.814909334193253  C 14.04026608764954 30.655975434219712  17.332671527255744 32.52665961052837  20.962452510391103 33.04339713907128  L 20.962452510391103 37.250156331848046  L 12.748087747149661 37.250156331848046  C 11.613920643432735 37.250156331848046  10.694496544306542 38.159586690766325  10.694496544306542 39.28142589118198  C 10.694496544306542 40.40326509159764  11.613920643432735 41.31269545051597  12.748087747149661 41.31269545051597  C 12.748087747149661 41.31269545051597  12.748087747149661 41.31269545051597  12.748087747149661 41  L 33.283999631187754 41  C 33.283999631187754 41.31269545051597  33.283999631187754 41.31269545051597  33.283999631187754 41.31269545051597  C 34.4181667349047 41.31269545051597  35.33759083403089 40.40326509159764  35.33759083403089 39.28142589118198  C 35.33759083403089 38.159586690766325  34.4181667349047 37.250156331848046  33.283999631187754 37.250156331848046  L 25.069634867946313 37.250156331848046  L 25.069634867946313 33.0454283768762  C 28.699724731696726 32.528172427963966  31.992176843619834 30.65673496303952  34.271776959950934 27.814909334193253  C 34.810112890333315 28.138409713509247  35.46894142264793 28.199082191166553  36.05840129246644 27.97944216721386  L 38.94369692596336 26.910994371482168  C 42.95125801160721 25.42412445842041  45.60597277174465 21.634274717351992  45.60554675198442 17.40059038484992  L 45.60554675198442 12.87492181027207  C 45.60554675198442 9.509404235318144  42.84727447615485 6.781113179878027  39.444773191586094 6.781113179878027  L 37.82859691153125 6.781113179878027  C 38.01132735699484 6.1626798195932295  38.24981652735204 5.561720570044159  38.54119303730698 4.985470919324598  L 39.229146116972146 3.626551594746708  C 39.37158018284743 3.3446116455836616  39.44573036321853 3.0337547301707204  39.44573036321853 2.718573888175463  Z M 33.283999631187754 18.968730440666064  C 33.283999631187754 24.57792640330471  28.68687916788031 29.125078165924023  23.01604368916872 29.125078165924023  C 17.345208210457105 29.125078165924023  12.748087747149661 24.57792640330471  13.269230769230768 18.968730440666064  L 13.269230769230768 9.80567354596625  C 12.748087747149661 8.077063180347103  12.442102676360223 6.366734193011261  11.850668414561984 6  L 34.181418963775435 6  C 33.58760962049547 6.370755031610813  33.28392677184401 8.081626152655815  32.73076923076923 9.80567354596625  L 32.73076923076923 18.968730440666064  C 33.283999631187754 18.968730440666064  33.283999631187754 18.968730440666064  33.283999631187754 18.968730440666064  Z M 4.533722983908213 17.40059038484992  L 4.533722983908213 12.87492181027207  C 4.533723010490254 11.753082628448425  5.4531471018307425 10.843652298545948  6.587314186751331 10.843652298545948  L 8.640905389594456 10.843652298545948  L 8.640905389594456 18.968730440666064  C 8.640905389594456 20.520620356003775  8.89144349834031 22.01563475586306  9.357608681700098 23.41314821763602  L 8.530011465507286 23.106426500703577  C 6.125938975156402 22.214090463570074  4.533510158301899 19.940446331778354  4.533722983908213 17.40059038484992  Z M 37.502075912830136 23.106426500703577  L 36.674478648506266 23.411116932223287  C 37.15039343955326 21.97737018140071  37.392326982814964 20.477778587359225  37.391181988742964 18.968730440666064  L 37.391181988742964 10.843652298545948  L 39.44477319158609 10.843652298545948  C 40.578940257710336 10.843652324839091  41.49836431971612 11.753082647040436  41.498364346298175 12.87492181027207  L 41.498364346298175 17.40059038484992  C 41.49857717943112 19.940446319708983  39.9061483842298 22.21409044796826  37.502075912830136 23.106426500703577  Z M 27.558587386347238 14.896035037757962  L 25.328387357483045 14.629938695825508  C 24.975144023628218 14.588020631353068  24.669011686550228 14.36821817020963  24.519272413840387 14.048995638133214  L 23.574620500000005 12.033976219277662  C 23.473538904140355 11.819085547342802  23.255659981194686 11.681661307812533  23.01604368916872 11.681661307812533  C 22.776427397142747 11.681661307812533  22.558548474197078 11.819085547342802  22.45746687833742 12.033976219277662  L 21.510761357266563 14.048995638133214  C 21.36139789272078 14.367652971894053  21.056180593894243 14.5873560636431  20.703700020854388 14.629938695825508  L 18.473499991990195 14.896035037757962  C 18.163918171290756 14.932845124124093  17.93095147165606 15.19263887280853  17.93095147165606 15.501060194408353  C 17.93095147165606 15.670828298190635  18.002549401703284 15.832900683199874  18.128496672607884 15.948232645403358  L 19.77136960600375 17.45949718574108  C 20.031780091246883 17.699070114674633  20.148317016621238 18.054870865373793  20.079408284023675 18.399975000234548  L 19.64815413479579 20.579527204502796  C 19.64050331183377 20.618137750911288  19.63665092624168 20.657390462497425  19.63665092624168 20.69673565025564  C 19.63665092624168 21.033287407751033  19.912478153824637 21.30611651329506  20.252728282281506 21.30611651329506  C 20.35735437481722 21.30611651329506  20.460256883350844 21.279760549932526  20.551734240943865 21.229533442542206  L 22.517021006710927 20.148898077157597  C 22.827326829158075 19.97821565257189  23.20476050104832 19.97821565257189  23.515066323495454 20.148898077157597  L 25.476245922932613 21.229533442542206  C 25.567723280525627 21.279760549932526  25.670625789059244 21.30611651329506  25.77525188159496 21.30611651329506  C 26.11550201005183 21.30611651329506  26.391329237634785 21.033287407751033  26.391329237634785 20.69673565025564  C 26.391329237634785 20.657390462497425  26.387476852042703 20.618137750911288  26.37982602908068 20.579527204502796  L 25.948571879852793 18.399975000234548  C 25.879663147255233 18.054870865373793  25.996200072629584 17.699070114674633  26.25661055787271 17.45949718574108  L 27.90359070572955 15.948232645403408  C 28.029537976634145 15.832900683199874  28.101135906681385 15.670828298190685  28.101135906681385 15.501060194408353  C 28.101135906681385 15.19263887280853  27.868169207046673 14.932845124124093  27.558587386347238 14.896035037757962  Z " fill-rule="nonzero" fill="#000000" stroke="none" transform="matrix(1 0 0 1 74 293 )" />
  </g>
</svg>