<?xml version="1.0" encoding="utf-8"?>
<svg version="1.1" xmlns:xlink="http://www.w3.org/1999/xlink" width="32px" height="39px" xmlns="http://www.w3.org/2000/svg">
  <g transform="matrix(1 0 0 1 -293 -773 )">
    <path d="M 29.57714285714286 28.64232558139533  C 30.125714285714295 29.050465116279046  30.50971428571429 29.581046511627886  30.729142857142858 30.234069767441863  C 30.838857142857147 30.615000000000002  30.93485714285715 31.097965116279077  31.017142857142854 31.682965116279068  C 31.09942857142858 32.26796511627907  31.14057142857143 32.85976744186047  31.14057142857143 33.45837209302326  C 31.14057142857143 34.05697674418605  31.092571428571436 34.62156976744186  30.996571428571432 35.1521511627907  C 30.900571428571435 35.682732558139534  30.756571428571437 36.084069767441854  30.564571428571433 36.356162790697674  C 30.427428571428578 36.546627906976745  30.077714285714293 36.73029069767442  29.515428571428576 36.90715116279069  C 28.95314285714287 37.084011627906975  28.246857142857152 37.24726744186046  27.39657142857143 37.396918604651155  C 26.546285714285723 37.546569767441866  25.600000000000005 37.689418604651166  24.55771428571429 37.82546511627906  C 23.515428571428583 37.961511627906965  22.473142857142864 38.07715116279069  21.430857142857153 38.17238372093023  C 20.38857142857144 38.26761627906976  19.373714285714296 38.33563953488371  18.386285714285727 38.376453488372086  C 17.398857142857157 38.41726744186045  16.534857142857156 38.43767441860465  15.794285714285726 38.437674418604644  C 15.053714285714296 38.43767441860465  14.196571428571442 38.41046511627906  13.222857142857155 38.3560465116279  C 12.249142857142875 38.301627906976734  11.248000000000015 38.233604651162786  10.219428571428583 38.15197674418604  C 9.190857142857153 38.070348837209295  8.169142857142866 37.97511627906976  7.154285714285725 37.86627906976743  C 6.139428571428584 37.75744186046511  5.213714285714299 37.63499999999999  4.377142857142868 37.49895348837208  C 3.5405714285714374 37.36290697674418  2.8274285714285807 37.233662790697664  2.237714285714296 37.11122093023255  C 1.648000000000014 36.98877906976743  1.284571428571441 36.859534883720926  1.147428571428582 36.723488372093016  C 0.9005714285714402 36.533023255813944  0.7085714285714394 35.92761627906976  0.5714285714285819 34.907267441860455  C 0.43428571428572454 33.88691860465116  0.48914285714286704 32.56046511627906  0.7360000000000103 30.927906976744183  C 0.873142857142867 30.00279069767441  1.2502857142857253 29.295348837209296  1.8674285714285817 28.80558139534883  C 2.4845714285714395 28.315813953488366  3.1977142857142957 27.928081395348826  4.006857142857153 27.642383720930223  C 4.81600000000001 27.356686046511623  5.666285714285724 27.104999999999993  6.557714285714295 26.887325581395345  C 7.44914285714287 26.66965116279069  8.22400000000001 26.34313953488372  8.882285714285723 25.90779069767441  C 9.40342857142858 25.581279069767433  9.80800000000001 25.26837209302325  10.09600000000001 24.96906976744185  C 10.384000000000011 24.669767441860458  10.5897142857143 24.370465116279057  10.713142857142868 24.071162790697663  C 10.83657142857144 23.77186046511627  10.898285714285725 23.45895348837208  10.898285714285725 23.132441860465104  C 10.898285714285725 22.80593023255813  10.884571428571439 22.43860465116278  10.85714285714287 22.03046511627906  C 10.802285714285725 21.431860465116262  10.603428571428585 20.96930232558138  10.260571428571438 20.642790697674407  C 9.917714285714297 20.31627906976743  9.54057142857144 19.976162790697664  9.129142857142867 19.622441860465102  C 8.909714285714294 19.45918604651161  8.72457142857144 19.221104651162776  8.573714285714296 18.90819767441859  C 8.422857142857152 18.595290697674404  8.278857142857152 18.275581395348823  8.141714285714295 17.949069767441845  C 8.004571428571438 17.59534883720929  7.881142857142865 17.20081395348836  7.771428571428579 16.765465116279053  C 7.716571428571436 16.71104651162789  7.634285714285722 16.615813953488356  7.524571428571437 16.479767441860446  C 7.442285714285723 16.343720930232543  7.346285714285723 16.16005813953487  7.2365714285714375 15.928779069767424  C 7.126857142857151 15.697499999999986  7.0034285714285796 15.364186046511614  6.8662857142857225 14.928837209302309  C 6.729142857142865 14.493488372093008  6.640000000000008 14.10575581395347  6.598857142857151 13.765639534883702  C 6.557714285714293 13.425523255813937  6.564571428571435 13.133023255813933  6.61942857142858 12.888139534883702  C 6.646857142857149 12.588837209302309  6.71542857142858 12.330348837209284  6.825142857142865 12.11267441860463  C 6.825142857142865 11.160348837209282  6.880000000000009 10.20802325581393  6.989714285714293 9.255697674418583  C 7.099428571428579 8.466627906976724  7.2777142857142945 7.609534883720911  7.524571428571437 6.6844186046511425  C 7.771428571428579 5.759302325581375  8.169142857142866 4.929418604651143  8.717714285714296 4.194767441860445  C 9.211428571428584 3.51453488372091  9.746285714285724 2.9499418604650955  10.322285714285723 2.5009883720930026  C 10.898285714285722 2.052034883720909  11.494857142857152 1.7051162790697465  12.112000000000009 1.4602325581395144  C 12.729142857142866 1.2153488372092829  13.353142857142863 1.0452906976743992  13.984000000000009 0.9500581395348635  C 14.614857142857149 0.8548255813953282  15.21828571428572 0.8072093023255605  15.794285714285719 0.8072093023255608  C 16.425142857142866 0.8616279069767238  16.93942857142858 0.9364534883720727  17.337142857142865 1.0316860465116071  C 17.73485714285715 1.126918604651142  18.057142857142868 1.2425581395348628  18.304000000000006 1.37860465116277  C 18.550857142857147 1.5146511627906776  18.76342857142858 1.677906976744165  18.94171428571429 1.8683720930232348  C 19.120000000000008 2.058837209302305  19.30514285714286 2.2493023255813744  19.497142857142858 2.439767441860444  L 20.278857142857145 2.439767441860444  C 20.525714285714287 2.439767441860444  20.765714285714292 2.4737790697674216  20.998857142857144 2.541802325581375  C 21.232 2.6098255813953286  21.465142857142858 2.739069767441839  21.698285714285717 2.9295348837209096  C 21.931428571428576 3.1199999999999797  22.18514285714286 3.3920930232557933  22.45942857142857 3.745813953488351  C 23.09028571428572 4.562093023255795  23.55657142857143 5.453197674418584  23.858285714285717 6.4191279069767235  C 24.160000000000007 7.385058139534864  24.379428571428576 8.303372093023237  24.51657142857143 9.174069767441841  C 24.65371428571429 10.180813953488354  24.736000000000008 11.173953488372073  24.763428571428573 12.153488372093001  C 24.818285714285725 12.289534883720911  24.859428571428577 12.4527906976744  24.88685714285715 12.64325581395347  C 24.91428571428572 12.83372093023254  24.934857142857144 13.064999999999982  24.94857142857143 13.337093023255795  C 24.962285714285716 13.609186046511612  24.941714285714287 13.949302325581378  24.88685714285715 14.357441860465098  C 24.832000000000004 14.901627906976731  24.749714285714294 15.330174418604635  24.640000000000004 15.643081395348815  C 24.530285714285718 15.955988372093005  24.40685714285715 16.194069767441842  24.269714285714286 16.35732558139533  C 24.13257142857143 16.5477906976744  23.98171428571429 16.683837209302308  23.817142857142862 16.76546511627905  C 23.70742857142858 17.200813953488353  23.584000000000003 17.595348837209283  23.446857142857144 17.949069767441845  C 23.30971428571429 18.275581395348823  23.16571428571429 18.595290697674404  23.014857142857146 18.908197674418588  C 22.864000000000008 19.221104651162776  22.678857142857147 19.45918604651161  22.459428571428575 19.622441860465095  C 21.993142857142864 20.003372093023234  21.609142857142864 20.32308139534882  21.307428571428577 20.581569767441838  C 21.00571428571429 20.840058139534865  20.800000000000008 21.282209302325562  20.69028571428572 21.908023255813934  C 20.608000000000004 22.288953488372076  20.580571428571435 22.669883720930212  20.608000000000004 23.05081395348835  C 20.635428571428577 23.431744186046497  20.738285714285723 23.81947674418603  20.91657142857143 24.214011627906956  C 21.094857142857148 24.608546511627885  21.382857142857144 24.98267441860463  21.78057142857143 25.336395348837186  C 22.178285714285717 25.69011627906975  22.733714285714296 26.003023255813936  23.446857142857144 26.27511627906975  C 24.077714285714293 26.519999999999982  24.770285714285716 26.74447674418603  25.52457142857143 26.948546511627885  C 26.27885714285715 27.152616279069747  27.005714285714287 27.383895348837182  27.70514285714286 27.642383720930212  C 28.40457142857143 27.900872093023235  29.028571428571436 28.234186046511613  29.57714285714286 28.64232558139533  Z M 16.96685714285714 29.927965116279072  C 17.117714285714282 29.66947674418605  17.30285714285714 29.32255813953489  17.522285714285715 28.887209302325584  C 17.604571428571433 28.723953488372093  17.611428571428572 28.55389534883721  17.542857142857144 28.37703488372093  C 17.474285714285713 28.20017441860465  17.37142857142857 28.03011627906977  17.234285714285715 27.86686046511628  C 17.097142857142863 27.703604651162795  16.932571428571435 27.526744186046514  16.74057142857143 27.336279069767443  L 14.848000000000003 27.336279069767443  C 14.656 27.526744186046514  14.50514285714286 27.703604651162795  14.395428571428573 27.86686046511628  C 14.285714285714286 28.002906976744192  14.196571428571431 28.15255813953489  14.128 28.315813953488377  C 14.059428571428576 28.479069767441867  14.066285714285716 28.628720930232564  14.14857142857143 28.764767441860467  C 14.340571428571431 29.14569767441861  14.50514285714286 29.47901162790698  14.642285714285714 29.764709302325585  C 14.779428571428573 30.050406976744192  14.930285714285716 30.274883720930234  15.094857142857144 30.43813953488372  C 15.040000000000003 30.683023255813957  14.957714285714289 31.029941860465122  14.848000000000003 31.478895348837206  C 14.738285714285714 31.927848837209304  14.635428571428571 32.39040697674419  14.539428571428571 32.86656976744186  C 14.443428571428575 33.342732558139545  14.36114285714286 33.79168604651163  14.29257142857143 34.213430232558146  C 14.224 34.63517441860465  14.189714285714288 34.95488372093023  14.189714285714285 35.172558139534885  C 14.189714285714288 35.308604651162796  14.251428571428573 35.471860465116286  14.374857142857143 35.66232558139535  C 14.498285714285716 35.85279069767442  14.642285714285718 36.05005813953488  14.806857142857144 36.25412790697674  C 14.971428571428575 36.4581976744186  15.142857142857146 36.62825581395349  15.321142857142858 36.76430232558139  C 15.499428571428576 36.90034883720931  15.657142857142857 36.968372093023255  15.794285714285715 36.968372093023255  C 15.931428571428576 36.968372093023255  16.095999999999997 36.90034883720931  16.288 36.76430232558139  C 16.48 36.62825581395349  16.665142857142857 36.47180232558139  16.84342857142857 36.294941860465116  C 17.021714285714282 36.11808139534883  17.172571428571427 35.927616279069774  17.296 35.7235465116279  C 17.41942857142857 35.51947674418604  17.481142857142856 35.34941860465116  17.481142857142856 35.21337209302326  C 17.481142857142856 35.05011627906977  17.439999999999998 34.77122093023256  17.35771428571428 34.37668604651163  C 17.275428571428566 33.9821511627907  17.18628571428571 33.540000000000006  17.090285714285713 33.05023255813954  C 16.994285714285713 32.560465116279076  16.891428571428573 32.0843023255814  16.781714285714287 31.621744186046513  C 16.672 31.159186046511632  16.576 30.79186046511629  16.493714285714287 30.519767441860466  C 16.658285714285714 30.383720930232563  16.816000000000003 30.1864534883721  16.96685714285714 29.927965116279072  Z " fill-rule="nonzero" fill="#000000" stroke="none" transform="matrix(1 0 0 1 293 773 )" />
  </g>
</svg>