<?xml version="1.0" encoding="utf-8"?>
<svg version="1.1" xmlns:xlink="http://www.w3.org/1999/xlink" width="43px" height="43px" xmlns="http://www.w3.org/2000/svg">
  <g transform="matrix(1 0 0 1 -269 -473 )">
    <path d="M 42.90431886523439 21.488492799804703  C 42.90431886523439 9.672363156249958  33.32127119824219 0.09333071386720349  21.500048952148436 0.09333071386720349  C 9.678728801757813 0.09333071386720349  0.09568113476562701 9.672363108398486  0.09568113476562701 21.488492799804703  C 0.09568113476562701 33.30472039550784  9.678728849609378 42.88355693359381  21.500048952148436 42.88355693359381  C 33.32127115039063 42.88355693359381  42.90431886523439 33.30472039550784  42.90431886523439 21.488492799804703  Z M 20 27.100039169921843  L 20 11.700274237304711  L 19.366173744140625 11.700274237304711  L 20.000000000007574 11.700274237304711  L 23.5462246875 11.700274237304711  L 23 13.310400551757766  L 23 27.10145921289063  L 20.890755054687503 27.10145921289063  L 20 27.100039169921843  Z M 25 27.101557165039026  L 25 16.073009498046872  L 29.11703066796875 16.073009498046872  L 29.11703066796875 17.530114602539015  L 29.11703066796875 27.100137122070347  L 25 27.101557165039026  Z M 13.796836710937498 27.100039169921843  L 13.796836758789055 18.834296353515583  L 17.97522280273438 18.834296353515583  L 17.97522280273438 20.40123395312503  L 17.97522280273438 27.100039169921843  L 15.319851122070318 27.10145921289063  L 13.796836710937498 27.100039169921843  Z M 31.901674636718752 28  L 31.90167468457031 29.928116757812518  L 31.90167468457031 31  L 12.46988541601563 31  L 11.098276363281258 31.27671141015628  L 11.098276363281258 28  L 31.901674636718752 28  Z M 23.546224639648443 27.10145921289063  L 22.999999999999996 27.100039169921843  L 23.546224639648443 27.10145921289063  Z " fill-rule="nonzero" fill="#272536" stroke="none" transform="matrix(1 0 0 1 269 473 )" />
  </g>
</svg>