<?xml version="1.0" encoding="utf-8"?>
<svg version="1.1" xmlns:xlink="http://www.w3.org/1999/xlink" width="36px" height="36px" xmlns="http://www.w3.org/2000/svg">
  <g transform="matrix(1 0 0 1 -55 -776 )">
    <path d="M 22.754083806818183 19  L 22.754083806818183 21.59952059659091  C 22.754083806818183 22.909889914772727  21.69140625 23.97256747159091  20.37704190340909 23.97256747159091  L 15.622958096590908 23.97256747159091  C 14.30859375 23.97256747159091  13.245916193181817 22.909889914772727  13.245916193181817 21.59952059659091  L 13.245916193181817 19  L 3 19  L 3 33.56463068181818  C 2.659090909090909 34.85502485795455  3.713778409090909 35.89772727272727  5.020152698863636 35.89772727272727  L 30.979847301136367 35.89772727272727  C 32.28622159090909 35.89772727272727  33.34090909090909 34.85502485795455  33 33.56463068181818  L 33 19  L 22.754083806818183 19  Z M 35.89772727272727 8.519797585227273  L 30.017045454545457 8.519797585227273  L 30.017045454545457 3.2183948863636362  C 30.017045454545457 1.5005326704545454  28.37508877840909 0.10227272727272728  26.353604403409083 0.10227272727272728  L 9.646395596590907 0.10227272727272728  C 7.624911221590908 0.10227272727272728  5.982954545454546 1.5005326704545454  5.982954545454546 3.2183948863636362  L 5.982954545454546 8.515802556818183  L 0.10227272727272728 8.515802556818183  L 0.10227272727272728 18  L 13.245916193181817 18  L 13.245916193181817 14.484375  C 13.245916193181817 13.174005681818183  14.30859375 12.111328125  15.622958096590908 12.111328125  L 20.37704190340909 12.111328125  C 21.69140625 12.111328125  22.754083806818183 13.174005681818185  22.754083806818183 14.484375  L 22.754083806818183 18  L 35.89772727272727 18  L 35.89772727272727 8.519797585227273  Z M 27.456232244318183 8.519797585227273  L 27.460227272727273 9  L 8.539772727272727 9  L 8.539772727272727 3.2183948863636362  C 8.539772727272727 2.699041193181818  9.035156249999998 2.275568181818182  9.646395596590907 2.275568181818182  L 26.349609375 2.275568181818182  C 26.96084872159091 2.275568181818182  27.456232244318183 2.699041193181818  27.456232244318183 3.2183948863636362  L 27.456232244318183 8.519797585227273  Z " fill-rule="nonzero" fill="#373838" stroke="none" transform="matrix(1 0 0 1 55 776 )" />
  </g>
</svg>