<?xml version="1.0" encoding="utf-8"?>
<svg version="1.1" xmlns:xlink="http://www.w3.org/1999/xlink" width="66px" height="50px" xmlns="http://www.w3.org/2000/svg">
  <g transform="matrix(1 0 0 1 -32 -325 )">
    <path d="M 56.5840634897531 49  C 61.78665944486767 49.74018573457988  66.00025785528912 45.526587252447825  66 40.32399120879131  L 66 9.676008791208687  C 66.0025119979375 4.472475310374648  61.78759688202924 0.25756012273359374  56.5840634897531 1  L 31.712491767983 1  C 30.65210788712846 0.2439560439561319  29.587598015135164 0.5987926901098035  28.646868360815702 1.304339942857041  L 26.406446420923018 3.189925274725283  C 24.401206894610258 4.840328189010961  21.455237713978036 4.840328189010961  19.334470000620428 3.189925274725283  L 17.094048060727747 1.304339942857041  C 16.38024878935933 0.5987926901098035  15.323990947994908 0.2439560439561319  14.263607067140256 0.2439560439561319  L 9.432052586730348 0.2439560439561319  C 4.228519194454096 0.25756012273359374  0.01360407854593643 4.472475310374648  0 9.676008791208687  L 0 40.323991208791085  C 0.01360407854593643 45.52752468962535  4.228519194454096 49.742439877266406  9.432052586730348 49.75604395604387  L 13.322877412820793 49.75604395604387  C 14.853626120835177 49.75604395604387  16.268846593453016 49.05049670329663  17.094048060727747 47.87045862417585  C 20.984872886818188 42.564413186813226  24.756043534725254 42.564413186813226  28.646868360815702 47.87045862417585  C 29.587598015135164 49.05049670329663  31.002818487753117 49.75604395604387  32.41803900872265 49  L 56.5840634897531 49  Z M 31.828019955027845 4  L 56.5840634897531 4  C 59.179322069760666 3.668542140659383  62.53789195985446 5.789309890109962  62 8.384568514285775  L 62 42.11467840439559  C 62.53789195985446 44.7099370285714  59.179322069760666 46.83070477802198  56.5840634897531 46  L 32.53769323525773 46  C 29.70725224167024 42.939879837362696  26.406446420923018 40.93876631648345  22.98186043085377 40.93876631648345  C 19.5655264230617 40.93876631648345  16.264720602314483 42.93987988571439  13.434279608726994 46.83070477802198  L 9.4279265955917 46.83070477802198  C 6.832668015584136 46.83070477802198  3.5112321907924438 44.7099370285714  4 42.11467840439559  L 4 8.384568514285775  C 3.5112321907924438 5.789309890109962  6.832668015584136 3.668542140659383  9.4279265955917 3.668542140659383  L 14.259481076001723 3.668542140659383  L 16.50402900703294 5.554127472527398  C 20.284648538441882 8.736564635577452  25.806978483726336 8.736564635577452  29.587598015135164 5.554127472527398  L 31.828019955027845 4  Z M 23.576005475687225 37.36564395604387  C 24.87569776126033 37.36564395604387  25.226408361884985 36.30526005714296  25.226408361884985 35.00969378901095  L 25.226408361884985 28.535988294505387  C 25.226408361884985 27.24042197802191  24.87569776126033 26.18003812747247  23.576005475687225 26.180038079120777  C 22.280439181252763 26.180038079120777  21.95861061530134 27.24042197802191  21.95861061530134 28.535988294505387  L 21.95861061530134 35.00969378901095  C 21.95861061530134 36.305260105494426  22.280439181252763 37.36564395604387  23.576005475687225 37.36564395604387  Z M 35.36400818935499 32  L 51.53795664815932 32  C 52.83764893373243 32.340167032966974  53.89803281458708 31.766652030769137  53.89803276623539 30.47108571428566  C 53.8980327178838 29.17551939780219  52.83764888538085 28.602004395604354  51.53795664815932 28  L 35.36400818935499 28  C 34.06844189492053 28.602004395604354  33.008058062417575 29.17551939780219  33.008058062417575 30.47108571428566  C 33.008058062417575 31.766652030769137  34.068441943272106 32.340167032966974  35.36400818935499 32  Z M 35.36400818935499 21  L 51.397672369228076 21  C 52.693238663662655 20.552164118681276  53.75362249616561 19.768222742857233  53.753622544517306 18.4767824175824  C 53.753622544517306 17.17709010989006  53.258501673822764 16.397274725274656  51.9629353793883 17  L 35.92927119951509 17  C 34.633704905080634 16.397274725274656  33.008058062417575 17.181216101098926  33.008058062417575 18.4767824175824  C 33.008058062417575 19.772348734065872  34.068441943272106 20.552164118681276  35.36400818935499 21  Z M 25.226408361884985 21.464011705494613  L 25.226408361884985 14.491059340659376  C 25.226408361884985 13.195493024175903  24.87569776126033 12.1392351648351  23.576005475687225 12.1392351648351  C 22.280439181252763 12.1392351648351  21.958610615301225 13.19549307252737  21.958610615301225 14.495185331868015  L 21.958610615301225 21.464011705494613  C 21.958610615301225 22.759578021978086  22.280439181252763 23.81996187252753  23.576005475687225 23.819961920879223  C 24.87569776126033 23.819961920879223  25.226408361884985 22.759578021978086  25.226408361884985 21.464011705494613  Z " fill-rule="nonzero" fill="#666666" stroke="none" transform="matrix(1 0 0 1 32 325 )" />
  </g>
</svg>