<?xml version="1.0" encoding="utf-8"?>
<svg version="1.1" xmlns:xlink="http://www.w3.org/1999/xlink" width="57px" height="51px" xmlns="http://www.w3.org/2000/svg">
  <g transform="matrix(1 0 0 1 -164 -325 )">
    <path d="M 1 1  L 56 1  L 56 17.304291930379748  L 53 17.304291930379748  L 53 4  L 4 4  L 4 17.304291930379748  L 1 17.304291930379748  L 1 1  Z M 53 33.69570806962025  L 53 47  L 4 47  L 4 33.69570806962025  L 1 33.69570806962025  L 1 50  L 56 50  L 56 33.69570806962025  L 53 33.69570806962025  Z M 14.109574751420453 16.818853837025316  L 22.74382990056818 43.24055577531645  L 31.580499822443183 28.065887064873422  L 36.685147372159086 34.45223496835443  L 43.30158025568181 19.94583168512658  L 46.57184392755681 26.849139636075947  L 52.44187233664773 26.849139636075947  L 52.44187233664773 23.696944224683545  L 48.57068980823864 23.696944224683545  L 43.24465110085227 12.449910996835442  L 35.94506835937501 28.46306368670886  L 31.17567027698864 22.492805577531644  L 23.566139914772727 35.55550336234177  L 14.482776988636362 7.759444224683544  L 7.803089488636364 23.70324861550633  L 4.551802201704545 23.70324861550633  L 4.551802201704545 26.85544402689873  L 9.909468217329547 26.85544402689873  L 14.109574751420453 16.818853837025316  Z " fill-rule="nonzero" fill="#000000" stroke="none" transform="matrix(1 0 0 1 164 325 )" />
  </g>
</svg>