<?xml version="1.0" encoding="utf-8"?>
<svg version="1.1" xmlns:xlink="http://www.w3.org/1999/xlink" width="390px" height="205px" xmlns="http://www.w3.org/2000/svg">
  <g transform="matrix(1 0 0 1 0 -44 )">
    <path d="M 0 44  L 390 44  L 390 249  L 0 249  L 0 44  " fill-rule="nonzero" fill="#cccccc" stroke="none" />
    <path d="M 14 58  L 376 58  L 376 235  L 14 235  L 14 58  " fill-rule="nonzero" fill="#ffffff" stroke="none" />
    <path d="M 218.175 105.5  C 209.565 105.5  202.8 98.735  202.8 90.125  C 202.8 81.515  209.565 74.75  218.175 74.75  C 226.78500000000003 74.75  233.55 81.515  233.55 90.125  C 233.55 98.735  226.78500000000003 105.5  218.175 105.5  " fill-rule="nonzero" fill="#cccccc" stroke="none" />
    <path d="M 19 230  L 19 138.14999999999998  L 107 96.4  L 230.2 177.33076923076922  L 300.6 121.45  L 371 177.33076923076922  L 371 230  L 19 230  " fill-rule="nonzero" fill="#169bd5" stroke="none" />
  </g>
</svg>