<?xml version="1.0" encoding="utf-8"?>
<svg version="1.1" xmlns:xlink="http://www.w3.org/1999/xlink" width="52px" height="51px" xmlns="http://www.w3.org/2000/svg">
  <g transform="matrix(1 0 0 1 -298 -325 )">
    <path d="M 4 4  L 4 46  L 16.224560568093384 46  L 16.224560568093384 50  L 0 50  L 0 0  L 51 0  L 51 24.540114412715177  L 47 24.540114412715177  L 47 4  L 4 4  Z M 35.341325373540876 50.69807468574821  C 41.8714590700389 50.69807468574821  47.162076657587555 45.42125276165669  47.162076657587555 38.90312124315766  L 51.596118023346314 38.90312124315766  L 45.68574238132295 33.0081572716481  L 39.7703281011673 38.90312124315766  L 44.20436946692606 38.90312124315766  C 44.20436946692606 43.782925169491556  40.22884826848248 47.748079950207725  35.3362866848249 47.748079950207725  C 33.89018454085604 47.75310550023083  32.469275840466906 47.39629180175426  31.19952759922179 46.71784325496275  L 29.042971105058367 48.86877639451298  C 30.922400023346324 50.06485603871267  33.1091885992218 50.69807468574821  35.341325373540876 50.69807468574821  Z M 24.99186967704282 44.8031107142386  L 30.902245319066132 38.90814679318078  L 26.468203902723733 38.90814679318078  C 26.468203902723733 34.02834286684694  30.44372510116731 30.05816253610761  35.3362866848249 30.05816253610761  C 36.8277369766537 30.05816253610761  38.248645677042795 30.42502728417856  39.47304577042801 31.08839918090088  L 41.62960226459143 28.937466041350664  C 39.75017334630352 27.74138639715097  37.56338477042804 27.10816775011543  35.331247996108964 27.10816775011543  C 28.796075610894956 27.10816775011543  23.505458073929947 32.38498972465869  23.505458073929947 38.90312124315766  L 19.071416657587545 38.90312124315766  L 24.99186967704282 44.8031107142386  Z M 7.0541567665369405 13  L 7.0541567665369405 15  L 40.8133355525292 15  L 40.8133355525292 13  L 7.0541567665369405 13  Z M 7.0541567665369405 25  L 7.0541567665369405 26  L 26.201153704280138 26  L 26.201153704280138 25  L 7.0541567665369405 25  Z M 7.0541567665369405 35.77220685814151  L 7.0541567665369405 38.52117984501747  L 15.670305365758768 38.52117984501747  L 15.670305365758768 35.77220685814151  L 7.0541567665369405 35.77220685814151  Z " fill-rule="nonzero" fill="#000000" stroke="none" transform="matrix(1 0 0 1 298 325 )" />
  </g>
</svg>