<?xml version="1.0" encoding="utf-8"?>
<svg version="1.1" xmlns:xlink="http://www.w3.org/1999/xlink" width="18px" height="18px" xmlns="http://www.w3.org/2000/svg">
  <g transform="matrix(1 0 0 1 -356 -747 )">
    <path d="M 0.07254 9  C 0.07254 4.06944  4.06944 0.07254  9 0.07254  C 13.93056 0.07254  17.927460000000004 4.06944  17.927460000000004 9  C 17.927460000000004 13.93056  13.930560000000002 17.927460000000004  9 17.927460000000004  C 4.06944 17.927460000000004  0.07254 13.930560000000002  0.07254 9  Z M 10.351980000000001 13.41  C 10.351980000000001 12.663179999999999  9.74664 12.058020000000003  9 12.058020000000003  C 8.253359999999999 12.058020000000003  7.64802 12.663179999999999  7.64802 13.41  C 7.64802 14.15664  8.253359999999999 14.76198  9 14.76198  C 9.74664 14.76198  10.351980000000001 14.15664  10.351980000000001 13.41  Z M 7.796699999999999 9.83664  C 7.7966999999999995 10.47978  8.317979999999999 11.001059999999999  8.96112 11.001059999999999  C 9.60426 11.001059999999999  10.125539999999999 10.4796  10.125539999999999 9.83664  L 10.125539999999999 4.402439999999999  C 10.125539999999999 3.7592999999999996  9.60426 3.2380199999999992  8.961119999999998 3.2380199999999992  C 8.317979999999999 3.2380199999999992  7.796699999999999 3.7594799999999995  7.796699999999999 4.402439999999999  L 7.796699999999999 9.83664  Z " fill-rule="nonzero" fill="#038810" stroke="none" transform="matrix(1 0 0 1 356 747 )" />
  </g>
</svg>