<?xml version="1.0" encoding="utf-8"?>
<svg version="1.1" xmlns:xlink="http://www.w3.org/1999/xlink" width="16px" height="16px" xmlns="http://www.w3.org/2000/svg">
  <g transform="matrix(1 0 0 1 -14 -778 )">
    <path d="M 0 8  C 0 3.5817220013536555  3.5639034372921907 0  7.960199953358209 0  C 12.356496469424226 0  15.920398958333333 3.5817220013536555  15.920398958333333 8  C 15.918249088339643 12.417382731282478  12.355605656126846 15.997839380656341  7.960199953358209 16  C 3.5639034372921907 16  0 12.418277998646344  0 8  Z M 1.1104556635204916 8.003915812499908  C 1.1104556635204916 11.805840785662186  4.177191137985888 14.887909937499908  7.960201061530443 14.887909937499908  C 11.743210985074995 14.887909937499908  14.809946459540393 11.805840785662186  14.809946459540393 8.003915812499908  C 14.805648487774551 4.20441533055824  11.740799281347684 1.1220792693240127  7.960199953358209 1.1199216875000002  C 4.177190029813655 1.1199216875000002  1.1104556635204916 4.201990839337632  1.1104556635204916 8.003915812499908  Z M 11.217530534825869 5.6  C 11.221463267759523 5.540674674998872  11.225400254521809 5.540576334151901  11.229337849295575 5.540576334151901  C 11.35768307795785 5.540576334151901  11.462845981568632 5.642981329527766  11.466895553482587 5.771904062499998  L 11.466895553482589 6.508076359375  C 11.462845981568632 6.636999092347232  11.357683077957851 6.739404087723097  11.229337849295577 6.739404087723097  C 11.225400254521803 6.739404087723097  11.221463267759535 6.739305746876125  11.217530534825869 6.8  L 9.904467848258705 6.8  C 9.662895491293531 8.125305921874997  8.51347859141791 9.025942249999998  6.744545491293532 9.221732750000001  C 7.913444029850746 10.369065109374997  9.148580146144278 11.755261874999997  10.325271315298505 13.086637296874997  C 10.388959098080951 13.152817586634537  10.401649716934537 13.253255889705752  10.356441946517412 13.333333328125  C 10.311860824805834 13.41625703788929  10.224161331162609 13.466404516322445  10.130454897388057 13.44  L 8.606990485074625 13.44  C 8.5322853726149 13.465686507074032  8.460347853280945 13.43387574133264  8.412174051616915 13.376407249999993  C 7.1575562966417925 11.986294671875003  6.0003467506218895 10.705824765625003  4.515845615671641 9.256975031250004  C 4.470022629277693 9.217801576169977  4.443076335318819 9.160788894948336  4.45771144278607 9.100342640624994  L 4.45771144278607 8.184043078124995  C 4.450169986401769 8.050868700487245  4.562377338466666 7.948509700867225  4.695076725746267 8  L 5.567854291044775 8  C 6.943258224502486 7.953010281249999  7.800450481965171 7.526186984374999  8.02643754664179 6.8  L 4.706765718283578 6.8  C 4.7027828427900085 6.7393075368812605  4.6987956901632915 6.73940677281571  4.694807926196423 6.73940677281571  C 4.5658205951310755 6.73940677281571  4.459587565491544 6.637564384204452  4.4535043687810925 6.508076359375  L 4.4535043687810925 5.771904062499998  C 4.459587565491544 5.642416037670546  4.565820595131073 5.540573649059279  4.694807926196423 5.540573649059279  C 4.698795690163296 5.540573649059279  4.702782842790007 5.540672884993737  4.706765718283581 5.6  L 7.929029337686564 5.6  C 7.632908379975122 5.000489468750001  6.931569263059699 4.726382765624994  5.836700963930344 4.72  L 4.706765718283578 4.72  C 4.574066331003978 4.730883346007768  4.4618589789390795 4.628524346387748  4.45771144278607 4.495349968749997  L 4.45771144278607 3.528144890624999  C 4.459587565491542 3.3986568657955467  4.565820595131073 3.296814477184289  4.694807926196423 3.296814477184289  C 4.6987956901632915 3.296814477184289  4.702782842790007 3.2969137131187383  4.706765718283578 3.36  L 11.20194522699005 3.36  C 11.20587795992371 3.2969155031238735  11.209814946685983 3.2968171622769025  11.213752541459757 3.2968171622769025  C 11.342097770122033 3.2968171622769025  11.44726067373281 3.3992221576527664  11.451310245646765 3.528144890624999  L 11.451310245646765 4.2721487968749985  C 11.44726067373281 4.401071529847232  11.342097770122033 4.503476525223095  11.213752541459757 4.503476525223095  C 11.20981494668598 4.503476525223095  11.205877959923713 4.503378184376125  11.201945226990047 4.56  L 9.382359841417907 4.56  C 9.631741606072222 4.802105040093193  9.80314056087429 5.15872868788143  9.88108987873134 5.6  L 11.217530534825869 5.6  Z " fill-rule="nonzero" fill="#d9001b" stroke="none" transform="matrix(1 0 0 1 14 778 )" />
  </g>
</svg>