<?xml version="1.0" encoding="utf-8"?>
<svg version="1.1" xmlns:xlink="http://www.w3.org/1999/xlink" width="14px" height="7px" xmlns="http://www.w3.org/2000/svg">
  <g transform="matrix(1 0 0 1 -355 -235 )">
    <path d="M 7.004461443627885 6.927489106098676  C 6.794258040031538 6.927489106098676  6.592648742748371 6.853759022749448  6.443914473684211 6.7224927325581385  L 0.2737253289473682 1.2692587209302324  C 0.12700577328701843 1.1380413325467142  0.044726214244905096 0.9610050178899251  0.044726214244905096 0.7765341633540231  C 0.044726214244905096 0.3893729208490922  0.3998792819366961 0.0755167214935583  0.8379827931922732 0.0755167214935583  C 1.04665564371269 0.0755167214935583  1.2469244128273336 0.14817992673798294  1.3953947368421058 0.2777616279069763  L 7.004605263157896 5.235247093023258  L 12.613815789473685 0.2777616279069786  C 12.929085985689005 0.00909433977006673  13.431013522747289 0.016834227672858477  13.735485197368423 0.295058139534886  C 14.032226551779312 0.5668497926486652  14.032226551779312 0.9974670678164522  13.735485197368417 1.2692587209302324  L 7.565871710526317 6.721729651162789  C 7.4170673306823165 6.853462735065116  7.215087962432028 6.927489106098676  7.004461443627885 6.927489106098676  Z " fill-rule="nonzero" fill="#000000" stroke="none" transform="matrix(1 0 0 1 355 235 )" />
  </g>
</svg>