<?xml version="1.0" encoding="utf-8"?>
<svg version="1.1" xmlns:xlink="http://www.w3.org/1999/xlink" width="16px" height="16px" xmlns="http://www.w3.org/2000/svg">
  <g transform="matrix(1 0 0 1 -78 -777 )">
    <path d="M 86 777  C 90.48 777  94 780.52  94 785  C 94 789.48  90.48 793  86 793  C 81.52 793  78 789.48  78 785  C 78 780.52  81.52 777  86 777  Z " fill-rule="nonzero" fill="#ffffff" stroke="none" />
    <path d="M 86 777.5  C 90.2 777.5  93.5 780.8  93.5 785  C 93.5 789.2  90.2 792.5  86 792.5  C 81.8 792.5  78.5 789.2  78.5 785  C 78.5 780.8  81.8 777.5  86 777.5  Z " stroke-width="1" stroke="#ff8604" fill="none" />
  </g>
</svg>