<?xml version="1.0" encoding="utf-8"?>
<svg version="1.1" xmlns:xlink="http://www.w3.org/1999/xlink" width="8px" height="7px" xmlns="http://www.w3.org/2000/svg">
  <g transform="matrix(1 0 0 1 -82 -781 )">
    <path d="M 7.984572784810126 0.9961825284090905  L 7.958860759493671 1.0200047348484849  C 7.966772151898734 1.0231119791666665  7.9727056962025316 1.0272549715909087  7.980617088607596 1.0303622159090908  L 7.984572784810126 0.9961825284090905  Z M 0.012856012658228028 0.9941110321969694  L 0.016811708860759673 1.0148259943181819  C 0.0207674050632915 1.0127544981060606  0.025712025316456055 1.0117187499999996  0.02966772151898752 1.008611505681818  L 0.012856012658228028 0.9941110321969694  Z M 7.888647151898734 1.6994554924242424  C 7.888647151898734 1.5523792613636367  7.7729430379746836 1.4301609848484849  7.628560126582278 1.4301609848484849  C 7.558346518987341 1.4301609848484849  7.4950553797468356 1.459161931818182  7.448575949367089 1.5057705965909096  C 7.44560917721519 1.5088778409090913  7.444620253164557 1.5078420928030303  7.44560917721519 1.5036991003787883  L 5.7080696202531644 3.1453598484848486  L 4.2929193037974684 0.1758700284090909  C 4.226661392405062 0.08368844696969696  4.121835443037975 0.02568655303030284  4.003164556962025 0.02568655303030284  C 3.8647151898734178 0.02568655303030284  3.7440664556962027 0.10751065340909091  3.6827531645569622 0.22662168560606058  L 2.2913370253164556 3.1453598484848486  L 0.4984177215189875 1.450875946969697  C 0.4608386075949367 1.4291252367424243  0.4173259493670888 1.416696259469697  0.3708465189873418 1.416696259469697  C 0.2274525316455696 1.416696259469697  0.11174841772151899 1.5389145359848486  0.11174841772151899 1.6880622632575757  C 0.11174841772151899 1.7004912405303025  0.10977056962025317 1.7067057291666665  0.10581487341772151 1.7067057291666665  L 0.6606012658227848 6.047526041666666  C 0.6606012658227848 6.030954071969697  0.6596123417721522 6.0143821022727275  0.6576344936708861 5.996774384469697  C 0.6912579113924051 6.299212831439395  0.8860759493670886 6.5498638731060606  1.1481408227848102 6.653438683712121  C 1.1244066455696202 6.644116950757576  1.1006724683544304 6.636866714015151  1.0789161392405062 6.632723721590909  C 1.6356803797468353 6.851266571969697  2.7284414556962027 6.9931640625  3.9873417721518987 6.9807350852272725  C 5.252175632911392 6.9693418560606055  6.354825949367089 6.80569365530303  6.919501582278481 6.574721827651515  C 6.89873417721519 6.578864820075758  6.876977848101266 6.585079308712121  6.8532436708860756 6.594401041666666  C 7.115308544303797 6.489790482954546  7.310126582278481 6.239139441287879  7.34375 5.936700994318182  C 7.3397943037974684 5.971916429924242  7.3397943037974684 6.005060369318182  7.341772151898734 6.0350970643939394  L 7.892602848101266 1.7170632102272727  C 7.890625 1.7149917140151514  7.888647151898734 1.7087772253787878  7.888647151898734 1.6994554924242424  Z " fill-rule="nonzero" fill="#ff8604" stroke="none" transform="matrix(1 0 0 1 82 781 )" />
  </g>
</svg>