<?xml version="1.0" encoding="utf-8"?>
<svg version="1.1" xmlns:xlink="http://www.w3.org/1999/xlink" width="12px" height="12px" xmlns="http://www.w3.org/2000/svg">
  <g transform="matrix(1 0 0 1 -365 -19 )">
    <path d="M 8.982954545454545 4.721590909090909  L 11.965909090909092 4.721590909090909  L 11.965909090909092 1.7386363636363638  L 10.993039772727272 2.7115056818181817  C 9.889733104954052 1.039880768859044  8.020799466747775 0.03393824359238463  6.017897727272727 0.033664772727272634  C 2.7230113636363638 0.03366477272727275  0.05156249999999997 2.7046875  0.05156249999999997 6  C 0.05156249999999997 9.295312500000001  2.7230113636363638 11.966335227272728  6.017897727272729 11.96633522727273  C 8.446813597006821 11.966819171449865  10.63360741687871 10.494912788684674  11.547443181818185 8.244460227272729  C 11.572265913537965 8.183351774766557  11.585029192311683 8.118017304422835  11.585029192311683 8.052059659090911  C 11.585029192311683 7.7697114931328635  11.356140779594412 7.540823080415596  11.073792613636364 7.540823080415596  C 10.86574082942119 7.540823080415596  10.678440984075024 7.6669032320460655  10.600142045454545 7.859659090909092  C 9.842596365153254 9.724315157682963  8.030562042294578 10.94385318377133  6.017897727272729 10.943607954545458  C 3.287642045454546 10.943607954545454  1.0742897727272727 8.73025568181818  1.0742897727272727 6  C 1.0742897727272727 3.269744318181818  3.287642045454546 1.0563920454545455  6.017897727272729 1.0563920454545455  C 7.781676136363638 1.0563920454545455  9.37286931818182 1.9896306818181821  10.252840909090912 3.451278409090909  L 8.982954545454545 4.721590909090909  Z " fill-rule="nonzero" fill="#1989fa" stroke="none" transform="matrix(1 0 0 1 365 19 )" />
  </g>
</svg>