<?xml version="1.0" encoding="utf-8"?>
<svg version="1.1" xmlns:xlink="http://www.w3.org/1999/xlink" width="37px" height="37px" xmlns="http://www.w3.org/2000/svg">
  <g transform="matrix(1 0 0 1 -178 -223 )">
    <path d="M 36.88266385923873 18.5  C 36.88266385923873 17.717758977561775  36.198202975109005 17.03329809343205  35.41596195267079 17  L 20 17  L 20 1.5840380473292153  C 19.966701906567952 0.8017970248909879  19.28224102243822 0.11733614076126433  18.5 0.11733614076126433  C 17.717758977561775 0.11733614076126433  17.03329809343205 0.8017970248909879  17 1.5840380473292146  L 17 17  L 1.5840380473292153 17  C 0.8017970248909879 17.03329809343205  0.11733614076126433 17.717758977561772  0.11733614076126433 18.5  C 0.11733614076126433 19.28224102243822  0.8017970248909879 19.966701906567952  1.5840380473292146 20  L 17 20  L 17 35.415961952670784  C 17.03329809343205 36.19820297510901  17.717758977561772 36.88266385923873  18.5 36.88266385923873  C 19.28224102243822 36.88266385923873  19.966701906567952 36.198202975109005  20 35.415961952670784  L 20 20  L 35.415961952670784 20  C 36.19820297510901 19.966701906567952  36.88266385923873 19.28224102243822  36.88266385923873 18.5  Z " fill-rule="nonzero" fill="#d7d7d7" stroke="none" transform="matrix(1 0 0 1 178 223 )" />
  </g>
</svg>