<?xml version="1.0" encoding="utf-8"?>
<svg version="1.1" xmlns:xlink="http://www.w3.org/1999/xlink" width="14px" height="14px" xmlns="http://www.w3.org/2000/svg">
  <g transform="matrix(1 0 0 1 -368 -20 )">
    <path d="M 13.854343439453125 13.174141409031723  C 13.802020212239583 12.964848484848487  13.592727272727272 12.703232318122632  13.331111106001421 12.703232318122632  L 0.7212121212121209 12.703232318122632  C 0.4595959544862686 12.703232318122632  0.2503030303030301 12.912525242305872  0.2503030303030301 13.174141409031723  C 0.2503030303030301 13.435757575757576  0.4595959544862686 13.645050499940815  0.7212121212121209 13.645050499940815  L 13.383434348544032 13.645050499940815  C 13.645050515269887 13.645050499940815  13.854343439453125 13.435757575757576  13.854343439453125 13.174141409031723  Z M 0.3549495000591855 11.133535348425662  C 0.40727272727272706 11.238181818181818  0.5642424242424243 11.29050504539536  0.6688888939985795 11.29050504539536  L 2.9187878787878785 11.29050504539536  C 3.0234343485440336 11.29050504539536  3.180404045513731 11.238181818181818  3.2327272727272733 11.133535348425662  L 10.976565651455964 3.3896969696969688  C 11.185858575639203 3.180404045513731  11.185858575639203 2.9187878787878785  10.976565651455964 2.7094949546046396  L 8.778989893880206 0.459595954486269  C 8.569696969696968 0.25030303030303025  8.308080802971118 0.25030303030303025  8.09878787878788 0.459595954486269  L 6.529090909090909 2.0292929241832387  L 0.3549495000591855 8.203434348544034  C 0.25030303030303025 8.308080818300189  0.19797980308948854 8.412727272727272  0.19797980308948854 8.517373742483429  L 0.19797980308948854 10.767272727272726  C 0.19797980308948854 10.871919197028884  0.25030303030303025 11.02888889399858  0.3549495000591855 11.133535348425662  Z M 7.523232318122632 2.3432323181226318  L 8.412727272727272 1.4537373788470636  L 9.98242424242424 3.0234343485440336  L 9.092929287819603 3.912929287819602  L 7.523232318122632 2.3432323181226318  Z M 1.1921212121212108 10.296363636363637  L 1.1921212121212112 8.726666666666665  L 6.8953535302438445 3.0234343485440323  L 8.465050499940814 4.593131318241002  L 2.761818181818181 10.296363636363637  L 1.1921212121212108 10.296363636363637  Z " fill-rule="nonzero" fill="#1989fa" stroke="none" transform="matrix(1 0 0 1 368 20 )" />
  </g>
</svg>