<?xml version="1.0" encoding="utf-8"?>
<svg version="1.1" xmlns:xlink="http://www.w3.org/1999/xlink" width="5px" height="10px" xmlns="http://www.w3.org/2000/svg">
  <g transform="matrix(1 0 0 1 -367 -782 )">
    <path d="M 4.944240196078431 5.115489130434781  C 4.951593137254902 5.076766304347824  4.962622549019607 5.038722826086955  4.962622549019608 4.999320652173913  C 4.962622549019608 4.959918478260869  4.951593137254902 4.922554347826086  4.944852941176471 4.883831521739131  C 4.938725490196079 4.858695652173913  4.938725490196079 4.832880434782608  4.931372549019607 4.8091032608695645  C 4.907612275764011 4.740269969129482  4.871319046362873 4.677600213563123  4.824754901960785 4.625  L 0.8296568627450985 0.19565217391304346  C 0.6494091793040306 -0.008402852157448336  0.3544165291231145 -0.012953739012905162  0.169117647058824 0.18546195652173902  C -0.009538391317792072 0.39062549865111007  -0.005157594013221042 0.7172567933326883  0.17892156862745123 0.9164402173913042  L 3.861519607843137 5  L 0.1789215686274509 9.084239130434783  C -0.005086076404423514 9.28318836968722  -0.009468073326181655 9.609605463757063  0.16911764705882332 9.814538043478262  C 0.353865841517051 10.013171952702912  0.6487491679960857 10.008614296634615  0.8284313725490199 9.804347826086955  L 4.823529411764707 5.374320652173913  C 4.869957596366207 5.321600336731844  4.9062317017827395 5.258963603728105  4.930147058823529 5.190217391304346  C 4.938725490196077 5.165760869565216  4.938725490196077 5.139945652173912  4.944240196078431 5.115489130434781  Z " fill-rule="nonzero" fill="#038810" stroke="none" transform="matrix(1 0 0 1 367 782 )" />
  </g>
</svg>