<?xml version="1.0" encoding="utf-8"?>
<svg version="1.1" xmlns:xlink="http://www.w3.org/1999/xlink" width="30px" height="30px" xmlns="http://www.w3.org/2000/svg">
  <g transform="matrix(1 0 0 1 -54 -225 )">
    <path d="M 9.5625 3.375  C 9.5625 1.5  11.0625 0  12.9375 0  L 17.0625 0  C 18.9375 0  20.4375 1.5  20.4375 3.375  L 20.437881384812318 4.125  L 29.0625 4.125  C 29.625 4.125  30 4.5  30 5.0625  C 30 5.625  29.625 6  29.0625 6  L 0.9375 6  C 0.375 6  0 5.625  0 5.0625  C 0 4.5  0.375 4.125  0.9375 4.125  L 9.5625 4.124999999832692  L 9.5625 3.375  Z M 19.6875 9.375  L 18.975734279876495 28.05  L 21.375 28.05  C 22.125 28.125  22.875 27.5625  22.875 26.8125  L 24.375 9.375  C 24.375 8.8125  24.9375 8.4375  25.3125 8.4375  C 25.875 8.4375  26.25 9  26.25 9.375  L 24.9375 26.625  C 24.9375 28.5  23.25 30  21.375 30  L 17.99997250113347 30  L 12.000069939867814 30  L 8.625 30  C 6.75 30  5.25 28.5  5.25 26.8125  L 3.75 9.5625  C 3.75 9  4.125 8.625  4.6875 8.625  C 5.0625 8.4375  5.625 8.8125  5.625 9.375  L 6.9375 26.625  C 6.9375 27.375  7.687499999999999 28.125  8.4375 28.05  L 11.02355749538608 28.049994880038117  L 10.3125 9.5625  C 10.3125 9  10.6875 8.625  11.25 8.625  C 11.8125 8.625  12.1875 9  12.1875 9.5625  L 12.891665811201985 28.05  L 17.10107142670505 28.050000048992363  L 17.8125 9.375  C 17.8125 8.8125  18.1875 8.4375  18.75 8.4375  C 19.3125 8.4375  19.6875 8.8125  19.6875 9.375  Z M 17.0625 1.9500000000000002  L 12.9375 1.9500000000000002  C 12 1.875  11.4375 2.4375  11.4375 3.375  L 11.437518180679715 4.125  L 18.5625 4.124999999832692  L 18.5625 3.375  C 18.5625 2.4375  18 1.875  17.0625 1.9500000000000002  Z " fill-rule="nonzero" fill="#f2f2f2" stroke="none" transform="matrix(1 0 0 1 54 225 )" />
  </g>
</svg>