<?xml version="1.0" encoding="utf-8"?>
<svg version="1.1" xmlns:xlink="http://www.w3.org/1999/xlink" width="36px" height="36px" xmlns="http://www.w3.org/2000/svg">
  <g transform="matrix(1 0 0 1 435 -595 )">
    <path d="M 35.45999999999998 17.99946  C 35.45999999999998 27.578520000000026  27.698399999999992 35.34443999999996  18.12257999999997 35.34443999999996  C 8.548020000000008 35.34443999999996  0.785160000000019 27.578340000000026  0.785160000000019 17.99946  C 0.785160000000019 8.420579999999973  8.547840000000008 0.6555600000000368  18.12257999999997 0.6555600000000368  C 27.698399999999992 0.6555600000000368  35.45999999999998 8.420399999999972  35.45999999999998 17.99946  Z M 19.654920000000004 17.99964  L 27.31698 10.334159999999997  L 25.784460000000024 8.800740000000019  L 18.12257999999997 16.46604000000002  L 10.460519999999974 8.80092000000002  L 8.927099999999996 10.334339999999997  L 16.589159999999993 17.99964  L 8.927099999999996 25.66494  L 10.460519999999974 27.19817999999998  L 18.12257999999997 19.533059999999978  L 25.784460000000024 27.19817999999998  L 27.31698 25.66494  L 19.654920000000004 17.99964  Z " fill-rule="nonzero" fill="#d7d7d7" stroke="none" transform="matrix(1 0 0 1 -435 595 )" />
  </g>
</svg>