<?xml version="1.0" encoding="utf-8"?>
<svg version="1.1" xmlns:xlink="http://www.w3.org/1999/xlink" width="59px" height="59px" xmlns="http://www.w3.org/2000/svg">
  <defs>
    <mask fill="white" id="clip4">
      <path d="M 0 51.625  L 0 7.375  C 0 3.244999999999909  3.2450000000002053 0  7.375 0  L 59 0  L 59 59  L 7.375 59  C 3.2450000000002053 59  0 55.75499999999999  0 51.625  Z " fill-rule="evenodd" />
    </mask>
  </defs>
  <g transform="matrix(1 0 0 1 679 -674 )">
    <path d="M 0 51.625  L 0 7.375  C 0 3.244999999999909  3.2450000000002053 0  7.375 0  L 59 0  L 59 59  L 7.375 59  C 3.2450000000002053 59  0 55.75499999999999  0 51.625  Z " fill-rule="nonzero" fill="#f5f7fa" stroke="none" transform="matrix(1 0 0 1 -679 674 )" />
    <path d="M 0 51.625  L 0 7.375  C 0 3.244999999999909  3.2450000000002053 0  7.375 0  L 59 0  L 59 59  L 7.375 59  C 3.2450000000002053 59  0 55.75499999999999  0 51.625  Z " stroke-width="2" stroke="#e8e8e8" fill="none" transform="matrix(1 0 0 1 -679 674 )" mask="url(#clip4)" />
  </g>
</svg>