<?xml version="1.0" encoding="utf-8"?>
<svg version="1.1" xmlns:xlink="http://www.w3.org/1999/xlink" width="15px" height="15px" xmlns="http://www.w3.org/2000/svg">
  <g transform="matrix(1 0 0 1 -292 -74 )">
    <path d="M 4.567796610169492 0.6016949152542375  C 5.4774011299435035 0.21186440677966117  6.451977401129945 0.01694915254237282  7.491525423728814 0.01694915254237282  C 8.519774011299434 0.01694915254237282  9.48870056497175 0.21186440677966117  10.398305084745761 0.6016949152542375  C 11.307909604519773 0.9915254237288138  12.101694915254239 1.5254237288135597  12.779661016949154 2.2033898305084745  C 13.45762711864407 2.88135593220339  13.991525423728815 3.675141242937854  14.381355932203391 4.584745762711865  C 14.771186440677969 5.494350282485878  14.966101694915256 6.463276836158193  14.966101694915256 7.491525423728814  C 14.966101694915256 8.531073446327685  14.771186440677969 9.502824858757062  14.381355932203391 10.406779661016948  C 13.991525423728815 11.310734463276837  13.45762711864407 12.101694915254239  12.779661016949154 12.77966101694915  C 12.101694915254239 13.45762711864407  11.307909604519773 13.991525423728815  10.398305084745761 14.38135593220339  C 9.48870056497175 14.771186440677967  8.519774011299434 14.966101694915256  7.491525423728814 14.966101694915254  C 6.451977401129945 14.966101694915256  5.4774011299435035 14.771186440677967  4.567796610169492 14.38135593220339  C 3.6581920903954805 13.991525423728815  2.8644067796610173 13.45762711864407  2.186440677966101 12.77966101694915  C 1.5084745762711866 12.101694915254239  0.9745762711864406 11.310734463276837  0.5847457627118643 10.406779661016948  C 0.1949152542372882 9.502824858757062  0 8.531073446327685  0 7.491525423728814  C 0 6.463276836158193  0.1949152542372882 5.494350282485878  0.5847457627118643 4.584745762711865  C 0.9745762711864406 3.675141242937854  1.5084745762711866 2.88135593220339  2.186440677966101 2.2033898305084745  C 2.8644067796610173 1.5254237288135597  3.6581920903954805 0.9915254237288138  4.567796610169492 0.6016949152542375  Z M 8.57627118644068 8.525423728813559  L 11.76271186440678 8.525423728813559  C 12.056497175141244 8.525423728813559  12.305084745762713 8.420903954802258  12.508474576271189 8.21186440677966  C 12.711864406779664 8.002824858757062  12.813559322033903 7.751412429378533  12.8135593220339 7.457627118644068  C 12.813559322033903 7.163841807909604  12.711864406779664 6.915254237288135  12.508474576271189 6.711864406779661  C 12.305084745762713 6.508474576271187  12.056497175141244 6.40677966101695  11.76271186440678 6.406779661016949  L 8.57627118644068 6.406779661016949  L 8.57627118644068 3.2203389830508473  C 8.57627118644068 2.9265536723163845  8.471751412429379 2.6751412429378534  8.26271186440678 2.4661016949152543  C 8.053672316384182 2.2570621468926557  7.802259887005652 2.152542372881357  7.508474576271189 2.1525423728813564  C 7.214689265536725 2.152542372881357  6.966101694915257 2.2570621468926557  6.762711864406782 2.4661016949152543  C 6.559322033898308 2.6751412429378534  6.45762711864407 2.9265536723163845  6.457627118644069 3.2203389830508473  L 6.457627118644069 6.406779661016949  L 3.271186440677968 6.406779661016949  C 2.9774011299435053 6.40677966101695  2.7288135593220364 6.508474576271187  2.5254237288135615 6.711864406779661  C 2.322033898305087 6.915254237288138  2.22033898305085 7.163841807909604  2.22033898305085 7.457627118644068  C 2.22033898305085 7.751412429378533  2.322033898305087 8.002824858757062  2.5254237288135615 8.21186440677966  C 2.7288135593220364 8.420903954802258  2.9774011299435053 8.525423728813559  3.271186440677968 8.525423728813559  L 6.457627118644069 8.525423728813559  L 6.457627118644069 11.694915254237289  C 6.457627118644069 11.988700564971754  6.559322033898306 12.240112994350282  6.762711864406782 12.44915254237288  C 6.966101694915257 12.658192090395477  7.214689265536725 12.76271186440678  7.508474576271189 12.76271186440678  C 7.802259887005652 12.76271186440678  8.053672316384182 12.658192090395477  8.26271186440678 12.44915254237288  C 8.471751412429379 12.240112994350282  8.57627118644068 11.988700564971754  8.57627118644068 11.694915254237289  L 8.57627118644068 8.525423728813559  Z " fill-rule="nonzero" fill="#00a100" stroke="none" transform="matrix(1 0 0 1 292 74 )" />
  </g>
</svg>