<?xml version="1.0" encoding="utf-8"?>
<svg version="1.1" xmlns:xlink="http://www.w3.org/1999/xlink" width="10px" height="18px" xmlns="http://www.w3.org/2000/svg">
  <g transform="matrix(1 0 0 1 -12 -15 )">
    <path d="M 9.555078124999998 17.658203125  C 9.410351562499997 17.8029296875  9.217382812500002 17.876562500000002  9.026953125000002 17.876562500000002  C 8.833984375 17.876562500000002  8.6435546875 17.8029296875  8.4962890625 17.658203125  L 0.36367187499999964 9.5255859375  C 0.06914062499999929 9.23359375  0.06914062499999929 8.756250000000001  0.36367187499999964 8.464257812500001  L 8.493749999999999 0.3341796875000007  C 8.641015624999998 0.18691406250000053  8.831445312499998 0.11582031250000124  9.024414062499996 0.11582031250000124  C 9.214843749999996 0.11582031250000124  9.407812499999999 0.18945312500000178  9.555078124999998 0.3341796875000007  C 9.847070312499998 0.6261718750000007  9.847070312499998 1.1009765625000005  9.555078124999998 1.3955078125000018  L 1.953125 8.994921875000001  L 9.555078124999998 16.596875  C 9.847070312499998 16.891406250000003  9.847070312499998 17.3662109375  9.555078124999998 17.658203125  Z " fill-rule="nonzero" fill="#666666" stroke="none" transform="matrix(1 0 0 1 12 15 )" />
  </g>
</svg>