<?xml version="1.0" encoding="utf-8"?>
<svg version="1.1" xmlns:xlink="http://www.w3.org/1999/xlink" width="20px" height="20px" xmlns="http://www.w3.org/2000/svg">
  <g transform="matrix(1 0 0 1 -11 29 )">
    <path d="M 6.459004616477273 17.102988569779825  C 5.672540949041193 17.102988569779825  5.038788685191761 17.736740833629263  5.038788685191761 18.523204501065337  C 5.038788685191761 19.309668168501418  5.672540949041195 19.943420432350855  6.459004616477273 19.943420432350855  C 7.245468283913351 19.943420432350855  7.879220547762785 19.309668168501418  7.879220547762785 18.523204501065337  C 7.879220569957387 17.736740833629263  7.245468283913353 17.102988569779825  6.459004616477273 17.102988569779825  Z M 16.404333939985797 17.102988569779825  C 15.617870272549716 17.102988569779825  14.984118008700285 17.736740833629263  14.984118008700285 18.523204501065337  C 14.984118008700285 19.309668168501418  15.617870272549716 19.943420432350855  16.404333939985797 19.943420432350855  C 17.19079760742187 19.943420432350855  17.82454987127131 19.309668168501418  17.82454987127131 18.523204501065337  C 17.824549893465907 17.736740833629263  17.186979825106533 17.102988569779825  16.404333939985797 17.102988569779825  Z M 5.638180908203125 14.365636874112212  C 5.6763587535511375 14.693966375177558  5.977963756214489 14.972664661754258  6.275750954367898 14.886363636363635  L 17.81309652432528 14.886363636363635  C 18.206328346946023 14.972664661754258  18.523204501065344 15.289540793678976  18.523204501065344 15.68277263849432  C 18.523204501065344 16.076004483309664  18.20632836914062 16.392880593039777  17.81309652432528 16  L 6.275750954367898 16  C 5.252584628018465 16.392880593039777  4.351587424538353 15.583510231711648  4.229418323863637 14.54889055841619  L 3.02299833540483 6.0695905983664815  L 2.339614857066761 2.106729980468755  C 2.2976192294034092 1.7593115678267102  1.980743097478693 1.4767954989346646  1.6753203124999996 1.4767954989346646  L 0.7666875443892045 1.4767954989346646  C 0.37345572176846614 1.4767954989346646  0.05657956764914812 1.1599193670099468  0.05657956764914812 0.7666875221946028  C 0.05657956764914812 0.3734556773792586  0.3734556995738636 0.05657954545454077  0.7666875443892045 0.05657954545454077  L 1.671502530184659 0.05657954545454077  C 2.7061222034801133 0.05657954545454077  3.6185727539062498 0.8659499067826717  3.7445596590909087 1.9005695800781295  L 4.4279431374289775 5.84815902432528  L 5.638180908203125 14.365636874112212  Z M 18.8438984375 11.03652856445313  C 18.72172931463068 12.032970392400571  17.824549893465907 12.842340753728687  16.80138358931108 12.842340753728687  L 7.218743829900567 13.548630925958802  C 7.199654873934659 13.548630948153404  7.180565940163351 13.552448730468749  7.165294810901988 13.552448730468749  C 6.794969682173296 13.552448730468749  6.485729114879262 13.269932661576703  6.459004638671875 12.895789750532664  C 6.428462357954547 12.50637571022727  6.722431795987215 12.16277507990057  7.115663618607955 12.136050581498575  L 16.751752374822445 11.425942604758525  C 17.10680635209517 11.42212482244318  17.404593572443183 11.147244318181812  17.442771417791192 10.830368186257095  L 18.56138234641335 4.4317609197443115  C 18.588106844815343 4.195058260830962  18.523204501065337 3.9316311257102203  18.38194646661932 3.7712841574928935  C 18.29031962446733 3.6682039683948893  18.175786088423294 3.614754971590912  18.042163618607955 4  L 5.737443314985794 4  C 5.344211492365058 3.614754971590912  5.027335338245739 3.2978788396661947  5.027335338245739 2.90464699485085  C 5.027335338245739 2.5114151500355058  5.348029252485795 2.186903475674714  5.737443314985794 2.2727272727272725  L 18.034528053977276 2.2727272727272725  C 18.576653497869316 2.186903475674714  19.07678329190341 2.4121527876420403  19.43947285600142 2.8206557395241494  C 19.85561139470881 3.2902432750355164  20.04268283913352 3.946902254971589  19.962509366122163 4.634103515625002  L 18.8438984375 11.03652856445313  Z " fill-rule="nonzero" fill="#ffffff" stroke="none" transform="matrix(1 0 0 1 11 -29 )" />
  </g>
</svg>