<?xml version="1.0" encoding="utf-8"?>
<svg version="1.1" xmlns:xlink="http://www.w3.org/1999/xlink" width="20px" height="20px" xmlns="http://www.w3.org/2000/svg">
  <g transform="matrix(1 0 0 1 -348 30 )">
    <path d="M 16.396698397549713 6.466640181107951  C 16.78993024236506 6.466640181107951  17.106806374289775 6.783516313032668  17 7.176748157848013  L 17 17.81309652432529  C 17.102988569779825 18.985156449751422  16.148542369495736 19.943420432350855  14.972664661754258 19.886363636363637  L 5.031153120561082 19.886363636363637  C 3.855275412819601 19.943420432350855  2.9008292125355113 18.988974232066766  3 17.81309652432529  L 3 7.150023659446018  C 2.9008292125355113 6.75679183682529  3.2177053444602293 6.439915682705969  3.610937189275567 6.439915682705969  C 4.004169034090911 6.439915682705969  4.321045166015622 6.756791814630687  4.318181818181818 7.150023659446018  L 4.318181818181818 17.81309652432529  C 4.321045166015622 18.206328346946027  4.641739080255679 18.52320450106535  5.031153142755677 18.522727272727273  L 14.976482466264207 18.522727272727273  C 15.369714288884941 18.52320450106535  15.686590443004263 18.20632836914063  15.681818181818182 17.81309652432529  L 15.681818181818182 7.176748157848013  C 15.686590420809658 6.783516335227272  16.00346655273437 6.466640181107951  16.396698397549713 6.466640181107951  Z M 0.05657954545454722 4.317227383700283  C 0.05657954545454722 4.710459228515628  0.3734556773792619 5.027335360440346  0.7666875221946028 5  L 19.233312455610793 5  C 19.626544278231535 5.027335360440346  19.943420432350855 4.710459228515628  19.943420432350855 4.317227383700283  C 19.943420432350855 3.9239955388849395  19.62654430042614 3.6071194069602215  19.233312455610793 3.522727272727273  L 15.681818181818182 3.522727272727273  L 15.681818181818182 2.186903475674714  C 15.68277263849432 1.0110257679332335  14.735962025035512 0.05657956764915054  13.567719881924717 0.11363636363636365  L 6.44755126953125 0.11363636363636365  C 5.271673561789769 0.05657956764915054  4.3172273615056795 1.0110257679332335  4.318181818181818 2.186903475674714  L 4.318181818181818 3.522727272727273  L 0.7666875221946028 3.522727272727273  C 0.3734556995738652 3.6071194069602215  0.05657954545454722 3.9239955388849395  0.05657954545454722 4.317227383700283  Z M 14.204545454545453 2.186903475674714  L 14.204545454545453 3.522727272727273  L 5.795454545454546 3.522727272727273  L 5.795454545454546 2.186903475674714  L 5.737443314985792 2.186903475674714  C 5.737443314985792 1.7974894353693183  6.058137229225854 1.4767954989346646  6.447551291725854 1.4772727272727273  L 13.567719881924717 1.4772727272727273  C 13.957133922230112 1.4767954989346646  14.262556707208807 1.7898538485440374  14.204545454545453 2.186903475674714  Z M 11.418307040127843 14.972664661754258  L 11.418307040127843 7.157659246271312  C 11.418307040127843 6.764427423650571  11.735183172052553 6.44755126953125  12.128415016867898 6.44755126953125  C 12.521646861683243 6.44755126953125  12.83852299360796 6.764427401455968  12.840909090909092 7.157659246271312  L 12.840909090909092 14.968846879438926  C 12.838522971413349 15.362078702059653  12.521646839488639 15.68277263849432  12.128415016867898 15.68277263849432  C 11.735183194247156 15.68277263849432  11.418307040127843 15.365896506569603  11.418307040127843 14.972664661754258  Z M 7.159090909090909 14.972664661754258  L 7.159090909090909 7.157659246271312  C 7.157659246271305 6.764427423650571  7.474535378196023 6.44755126953125  7.86776722301136 6.44755126953125  C 8.2609990456321 6.44755126953125  8.577875199751423 6.764427401455968  8.577875199751423 7.157659246271312  L 8.577875199751423 14.968846879438926  C 8.57787517755682 15.362078702059653  8.2609990456321 15.68277263849432  7.867767200816758 15.68277263849432  C 7.474535378196023 15.68277263849432  7.157659224076709 15.365896506569603  7.159090909090909 14.972664661754258  Z " fill-rule="nonzero" fill="#ffffff" stroke="none" transform="matrix(1 0 0 1 348 -30 )" />
  </g>
</svg>