<?xml version="1.0" encoding="utf-8"?>
<svg version="1.1" xmlns:xlink="http://www.w3.org/1999/xlink" width="16px" height="16px" xmlns="http://www.w3.org/2000/svg">
  <g transform="matrix(1 0 0 1 -366 -19 )">
    <path d="M 16 8  C 16 12.418285718749999  12.418285718749999 16  8 16  C 3.58171428125 16  0 12.41828571875  0 8  C 0 3.581714281249999  3.58171428125 0  8 0  C 12.418285718749999 0  16 3.58171428125  16 8  Z M 14.857142859375 7.999999999999999  C 14.857142859375 4.423238093749999  11.57676190625 1.142857140625  8 1.1428571406250008  C 4.42323809375 1.142857140625  1.142857140625 4.42323809375  1.142857140625 8  C 1.142857140625 11.576761906249999  4.42323809375 14.857142859375  8 14.857142859375  C 11.576761906249999 14.857142859375  14.857142859375 11.576761906249999  14.857142859375 7.999999999999999  Z M 11.585142859375 10.564952375  C 11.882576722041197 10.862476073413287  11.882576722041197 11.344762020336713  11.585142859375 11.642285718750001  C 11.442363859882917 11.78530770406246  11.248568082776291 11.865677076587971  11.046476195312499 11.865677076587971  C 10.84438430784871 11.865677076587971  10.650588530742082 11.78530770406246  10.50780953125 11.642285718750001  L 8.083428578125 9.218285718750002  L 5.6590476249999995 11.642285718750001  C 5.516151344472081 11.785232528471074  5.322312067190879 11.865543459012505  5.1201904765625 11.865543459012505  C 4.699391243215164 11.865543459012505  4.358266064424995 11.524418280222337  4.358266064424995 11.103619046875  C 4.358266064424995 10.901590800462497  4.4385030402563315 10.707833168726326  4.581333328125 10.564952375  L 7.00571428125 8.140571421875  L 4.581333328125 5.71619046875  C 4.438503043681435 5.573309676377732  4.358266069948289 5.3795520477208845  4.358266069948289 5.1775238046875  C 4.358266069948289 4.756724574390594  4.699391246265595 4.41559939807329  5.1201904765625 4.41559939807329  C 5.322312067640325 4.41559939807329  5.516151345190939 4.495910329549823  5.6590476249999995 4.638857140624999  L 8.083428578125 7.06323809375  L 10.50780953125 4.638857140624999  C 10.65138012066029 4.490207372414867  10.849176732139632 4.4062562954036775  11.055838938971322 4.4062562954036775  C 11.476627321849413 4.4062562954036775  11.817743704596321 4.747372678150585  11.817743704596321 5.168161061028678  C 11.817743704596321 5.374823267860366  11.733792627585133 5.572619879339711  11.585142859375 5.71619046875  L 9.16076190625 8.140571421875  L 11.585142859375 10.564952375  Z " fill-rule="nonzero" fill="#2e8ff4" stroke="none" transform="matrix(1 0 0 1 366 19 )" />
  </g>
</svg>