<?xml version="1.0" encoding="utf-8"?>
<svg version="1.1" xmlns:xlink="http://www.w3.org/1999/xlink" width="16px" height="17px" xmlns="http://www.w3.org/2000/svg">
  <g>
    <path d="M 15.92290909659091 8.600727272727273  C 15.918099296007773 4.227019238239874  12.373708034487397 0.6826279767194988  8 0.6778181761363637  C 3.6262919655125994 0.6826279767195009  0.08190070399222807 4.227019238239872  0.07709090340909083 8.600727272727275  C 0.08190070399223016 12.97443530721467  3.626291965512603 16.518826568735044  8 16.52363636931818  C 12.373708034487402 16.518826568735044  15.918099296007773 12.974435307214673  15.92290909659091 8.600727272727273  Z M 2.170181818181818 8.600727272727273  L 2.171636357954546 8.600727272727275  C 2.175643399733033 5.383472149551184  4.782744876823911 2.776370672460305  8 2.772363630681818  C 9.262545448863637 2.772363630681818  10.429090914772727 3.176727272727273  11.386181818181818 3.860363642045455  L 3.2581818125 11.985454551136362  C 2.549913279805517 10.999037142671371  2.169338829646827 9.81508426615973  2.170181818181818 8.600727272727273  Z M 13.826909085227273 8.600727272727275  C 13.822903848105083 11.817415441619397  11.216687069002369 14.424282804132678  8 14.429090914772726  C 6.802909096590909 14.429090914772726  5.690181823863637 14.06545455681818  4.763636357954545 13.445818176136363  L 12.843636363636364 5.364363630681818  C 13.464727267045454 6.289454539772727  13.826909085227271 7.403636352272729  13.826909085227273 8.600727272727275  Z " fill-rule="nonzero" fill="#f44444" stroke="none" />
  </g>
</svg>