<?xml version="1.0" encoding="utf-8"?>
<svg version="1.1" xmlns:xlink="http://www.w3.org/1999/xlink" width="22px" height="17px" xmlns="http://www.w3.org/2000/svg">
  <g transform="matrix(1 0 0 1 -13 -20 )">
    <path d="M 7.682704402515722 0.416666657366071  C 8.133920704166206 -0.047088916802301074  8.863796449792785 -0.0454901056157431  9.313102734375 0.4202380859375004  C 9.762274781901615 0.886104264293871  9.760726247814931 1.638486795287215  9.309643614878144 2.1023809430803584  L 4.035639403989779 7.571428571428572  L 20.846960158706757 7.571428571428572  C 20.846960158706757 7.523809514508928  20.846960158706757 7.523809514508928  20.846960158706757 7.523809514508928  C 21.483766479000334 7.523809514508928  22 8.056803864112478  22 8.714285714285714  C 22 9.371767564458953  21.483766479000334 9.904761914062501  20.846960158706757 9.904761914062501  C 20.846960158706757 9.904761914062501  20.846960158706757 9.904761914062501  20.846960158706757 9.857142857142858  L 4.180922422857703 9.857142857142858  L 9.280817610062892 14.797619056919643  C 9.706551744918837 15.205693606860871  9.771772904344159 15.877040330678982  9.433018867924526 16.364285714285714  L 9.340775690349842 16.4797619140625  C 8.90737683811935 16.96124978450417  8.178034666563143 16.98896184258483  7.711530407330972 16.541666657366072  L 0.46006289308175946 9.586904771205354  C 0.22494867520612788 9.361639711807998  0.09134174084780305 9.045440068174912  0.09134174084780305 8.71427418884597  C 0.09134174084780305 8.397439797559278  0.21366828713581879 8.093675468485165  0.43123688826650747 7.870238085937497  L 7.682704402515722 0.416666657366071  Z " fill-rule="nonzero" fill="#333130" stroke="none" transform="matrix(1 0 0 1 13 20 )" />
  </g>
</svg>