<?xml version="1.0" encoding="utf-8"?>
<svg version="1.1" xmlns:xlink="http://www.w3.org/1999/xlink" width="25px" height="27px" xmlns="http://www.w3.org/2000/svg">
  <g transform="matrix(1 0 0 1 -301 -62 )">
    <path d="M 5.203776350585938 21.653853705078124  C 5.203776350585938 21.700048354492186  5.204124095703126 21.745054853515626  5.204645755859375 21.78942377734375  L 5.203776350585938 21.653853705078124  Z M 16.528833949218747 7.4701452353515645  C 16.52883394921875 6.8432712666015645  16.021011267578125 6.335999188476562  15.394079327148436 6.335999188476562  C 14.767726990234372 6.335999188476562  14.259933280273437 6.843242266601563  14 7.470145235351563  L 14 21.69149916015625  C 14.27045314355468 22.317300865234376  14.778246853515622 22.825674178710937  15.404599190429686 22.825674178710937  C 16.03095152734375 22.825674178710937  16.53877420898437 22.317300865234376  16.53877420898437 21.69149916015625  L 16.528833949218747 7.4701452353515645  Z M 24.43087742578125 4.102019758789057  C 24.430877369140624 3.4751168750000003  23.922996715820315 2.9678447968749997  23.296673350585937 2.9678447968749997  L 14.265555457031247 2.972046936523437  L 14.260512883789062 1.7993860009765625  C 14.260512883789062 1.1724830322265625  13.752632230468748 0.665210982421875  13.125787233398437 0.665210982421875  C 12.919215277343751 0.665210982421875  12.72571348535156 0.720679373046875  12.558873596679687 0.8171259814453127  C 12.391946764648438 0.7206793730468752  12.198358029296875 0.6652109824218753  11.991583214843748 0.6652109824218753  C 11.365259849609373 0.6652109824218753  10.857437167968751 1.1724830605468752  10.857437167968751 1.7993860009765625  L 10.86276954296875 2.9736408603515625  L 4.345813049804687 2.976654821289063  C 4.25438004296875 2.952890935546875  4.158513038085937 2.9401975449218756  4.059661072265625 2.9401975449218756  C 3.960461333007812 2.9401975449218756  3.8642755546874996 2.953006850585938  3.772581717773437 2.9769156513671877  L 1.7032977060546863 2.9778720000000005  C 1.076974340820311 2.9778720000000005  0.5691226874999984 3.486245313476563  0.5691226874999984 4.112018046875001  C 0.5691226874999984 4.738921015625  1.076945397460936 5.246193065429688  1.7032977060546863 5.246193065429688  L 3 5.245613461914063  L 3 22.744819006835936  L 2.9360349169921856 22.744819006835936  L 2.9360349169921856 23.949879965820312  C 2.9360349169921856 25.202584639648435  3.9516803085937484 26.218201031249997  5.204355982421872 26.218201031249997  L 6.338531000976561 26.218201031249997  L 6.338531000976561 26  L 18.814282431640624 26  L 18.814282431640624 26.218201031249997  L 19.94845745019531 26.218201031249997  C 21.18502005566406 26.218201031249997  22.18991375390625 25.228406109374994  22 23.998016312499995  L 22 7.476810675781249  C 22.20628762402343 6.849936707031248  21.698493914062496 6.342664628906247  21.072112605468746 6.342664628906247  C 20.445789240234372 6.342664628906247  19.937966558593747 6.849936707031247  20 7.476810675781249  L 20 21.90102704882812  C 19.906262053710932 23.60915794628906  19.419508070312496 23.922174713867186  17.680658016601562 23.922174713867186  L 18.858100723632813 24  L 5.988158551757811 24  L 7.472097444335938 23.922174713867186  C 5.695978652343748 23.922174713867186  5.2261491992187485 23.595855952148433  5.204645784179686 21.78942372070312  L 5.218614325195311 23.959095678710934  L 5.203225747070311 23.959095678710934  L 5.194357750976561 5.244512169921871  L 11.901251471679688 5.241411265624995  C 11.934491928710937 5.24433828320312  11.968109130859375 5.246135065429683  12.002103106445311 5.246135065429683  C 12.036531770507812 5.246135065429683  12.070525717773437 5.24433828320312  12.104171891601561 5.24132432226562  L 13.02852919140625 5.240889605468745  C 13.064030119140623 5.2442513398437445  13.099936763671877 5.24613503710937  13.136307124999998 5.24613503710937  C 13.173112174804686 5.24613503710937  13.209453536132813 5.244222339843744  13.245389180664061 5.2408026621093695  L 23.296644435546877 5.236165805664057  C 23.92296780078125 5.236165805664057  24.43087742578125 4.728893727539057  24.43087742578125 4.102019758789057  Z M 19.934257079101563 23.95048856933594  L 19.946225951171876 22.089399380859376  L 19.94726924316406 23.95048856933594  L 19.934257079101563 23.95048856933594  Z M 11 7.4701452353515645  C 10.857437167968751 6.8432712666015645  10.349614458007812 6.335999188476562  9.723291121093752 6.335999188476562  C 9.096938784179688 6.335999188476562  8.589116102539062 6.843242266601563  9 7.470145235351563  L 9 21.69149916015625  C 8.599635965820314 22.317300865234376  9.10745867578125 22.825674178710937  9.733839984375 22.825674178710937  C 10.360163349609376 22.825674178710937  10.86798603125 22.317300865234376  11 21.69149916015625  L 11 7.4701452353515645  Z " fill-rule="nonzero" fill="#ffffff" stroke="none" transform="matrix(1 0 0 1 301 62 )" />
  </g>
</svg>