<?xml version="1.0" encoding="utf-8"?>
<svg version="1.1" xmlns:xlink="http://www.w3.org/1999/xlink" width="21px" height="23px" xmlns="http://www.w3.org/2000/svg">
  <g transform="matrix(1 0 0 1 -185 -259 )">
    <path d="M 9.964570511429399 22.70767901500355  C 10.096546785534926 22.840726513727503  10.26521332467421 22.914491752450648  10.437873807618457 22.928974724578328  C 10.66055880590361 22.955208318984813  10.892599617527653 22.88229379897563  11.063276869936345 22.71023116455078  C 11.105190327666394 22.66797749657154  11.141172768083909 22.62199324251666  11.17122424254756 22.573334154904114  L 20.703539138454868 12.963646573153412  C 21.00226575882523 12.665047347745032  21.00226575882523 12.180142660245023  20.706070739293978 11.881543434836644  C 20.409875694444445 11.58294420942827  19.928875231481488 11.58294420942827  19.632680186631948 11.881543434836644  L 10.512729676222518 21.073112105298488  L 1.392635619212964 11.878991310813205  C 1.0964405743634278 11.580392085404828  0.6154401114004642 11.580392085404828  0.31924509186921446 11.878991310813205  C 0.023050072337964717 12.177590536221592  0.02305004701967648 12.66249522372159  0.31924509186921446 12.96109444912997  L 9.865546160740807 22.584881727966792  C 9.893719284645469 22.628337274475495  9.926727401541665 22.6695287402771  9.964570511429399 22.70767901500355  Z M 9.964570511429399 11.121008689186787  C 10.096547055996611 11.254056471940428  10.26521401597796 11.327821741581552  10.437874869128756 11.342304498289137  C 10.660559543308896 11.368537735928024  10.892599888726355 11.29562317423506  11.063276869936345 11.123560813210227  C 11.105190308302811 11.08130716475174  11.141172734836882 11.0353229336646  11.171224200900028 10.986663871072937  L 20.703539138454868 1.3769762473366483  C 21.00226575882523 1.0783770219282665  21.00226575882523 0.5934723344282659  20.706070739293978 0.2948731090198879  C 20.409875694444445 -0.003726116388493688  19.928875231481488 -0.003726116388493688  19.632680186631948 0.2948731090198879  L 10.51272966427967 9.486441767441944  L 1.392635619212964 0.2923209849964477  C 1.0964405743634278 -0.006278240411933922  0.6154401114004642 -0.006278240411933922  0.31924509186921446 0.2923209849964477  C 0.023050072337964717 0.5909202104048293  0.02305004701967648 1.07582489790483  0.31924509186921446 1.374424097789418  L 9.865546129042409 10.998211344670556  C 9.893719259886542 11.04166691165618  9.926727387348873 11.082858396891325  9.964570511429399 11.121008689186787  Z " fill-rule="nonzero" fill="#000000" stroke="none" transform="matrix(1 0 0 1 185 259 )" />
  </g>
</svg>