<?xml version="1.0" encoding="utf-8"?>
<svg version="1.1" xmlns:xlink="http://www.w3.org/1999/xlink" width="29px" height="28px" xmlns="http://www.w3.org/2000/svg">
  <g transform="matrix(1 0 0 1 -344 -113 )">
    <path d="M 27.277738448974613 15.91764032877605  C 27.709317109996466 15.348313294921867  27.97671129461114 14.959059264322908  28.094026370849623 14.74973491145833  C 28.20664642393909 14.544545457031251  28.295771062699743 14.368709736328128  28.356745770396824 14.234775739583334  C 28.02821497343304 15.829783895833335  27.55905582863546 17.26158620442709  26.939777129549885 18.530203105468747  C 24.828631856622867 22.854881851562503  21.22064165356443 25.123879187499995  16.116150567760126 25.33318306966146  C 13.695112954145964 25.429473095703127  11.41033244426935 25.111372138671868  9.256850919921886 24.382830860677092  L 8.304488006791532 26.601656706380215  C 8.112942854248038 26.95822046223958  7.956246165482942 27.073997740885414  7.748673178422422 27.21749115820313  C 7.584913701726719 27.330709721354157  7.299265554132627 27.4089862936198  7.107821561745386 27.429005784505215  C 6.912188498246632 27.449475600260406  6.770528068758872 27.435822222656252  6.5142036307039985 27.36077986848958  C 6.311406588867171 27.301396929036457  6.2270376874999895 27.206191819661456  6.156672903253731 27.156081710937503  C 6.086328387340189 27.105766895182285  5.92439024722566 26.92076069726562  5.886850239612909 26.8831576373698  L 1.074463007390791 19.2209775579427  C 0.952574306241118 19.011632734375002  0.8822297903275776 18.81068053190105  0.85863321584251 18.613842787760426  C 0.8352794680841759 18.42126273567709  0.8492431392933303 18.25795453450521  0.8916198366255462 18.12402053776041  C 0.9337537072309914 17.99012745182292  1.0041184612260396 17.86442231054688  1.107449658425076 17.747273525390636  C 1.2019697700261105 17.64190687173349  1.3055525019380732 17.545237286583905  1.4169777136452317 17.45840347786458  C 1.5202684044300412 17.37887822330729  1.6327872671120425 17.316097300130213  1.7548580807439629 17.257451275390622  C 1.8767467818936363 17.19880525065105  1.961277587912805 17.165296147786457  1.9988378336070645 17.156903557291667  C 2.041012180375525 17.148531406901043  2.0691823495206045 17.136024358072916  2.092556335360447 17.115124657552087  L 10.518924000754604 15.013488507812497  C 10.969343498868056 14.91719848177083  11.400436445933947 14.885347444661457  11.66795205903763 14.935621349609372  C 11.93534624365234 14.985895223958343  11.993690121759592 15.002496229817705  12.167143215975658 15.065256682291665  C 12.340818929088234 15.13227485742188  12.538151900679154 15.297241124348961  12.625455202858667 15.461368123046878  C 12.708893212979397 15.618248798828121  12.74275004101561 15.762868074218755  12.766346615500716 15.88003729947917  C 12.78970036325905 15.997329348958337  12.78970036325905 16.131263376302076  12.766346615500716 16.281921203125005  C 12.742770279097117 16.432620001953126  12.723990156250006 16.537282178385418  12.705210033402858 16.58346209570313  C 12.681815809481547 16.633572204427082  12.672425763183577 16.662946408854168  12.672425763183577 16.68384607877605  L 11.68713694351475 18.932127981119795  C 13.432555459250716 19.530706364583335  15.074501111217133 19.89912213736979  16.622748529762962 20.04155110872396  C 18.171178091042247 20.183857286458323  19.48938918985262 20.150348183593753  20.573253439075803 19.941003360026038  C 21.657117688299024 19.731658536458326  22.670394564630687 19.384142464192717  23.603957086581136 18.902692364583324  C 24.53772198934659 18.421283206380203  25.27431579492186 17.943968005208337  25.818615699440684 17.47516824934896  C 26.362753669056307 17.006225198567716  26.85071317478251 16.487172069661447  27.277738448974613 15.91764032877605  Z M 1.2574478144753052 11.29653818229167  C 0.8070283163618538 11.853358136718745  0.5209147231445183 12.238518240885412  0.3942095703568886 12.447863033854162  C 0.2769754464444325 12.652950134765623  0.19246487850673397 12.81627880664062  0.15029053173827314 12.929313133463552  C 0.6007100298517245 11.045353046874993  1.2341547809614573 9.391698865885417  2.055198470481191 7.968268738281249  C 4.4150792336647795 3.9911265657552044  8.154388660333801 2.048643248046877  13.282273939808242 2.144933274088544  C 15.557846515869134 2.182577275390628  17.62681747227894 2.555230300130205  19.494165165327598 3.2709574381510436  L 20.50748251782227 1.0522749179687498  C 20.649891726074202 0.8106082617187459  20.797340004860633 0.6436154869791626  20.956829427867547 0.518053610026044  C 21.121074588267927 0.3923689394531209  21.28639230648528 0.3447561341145805  21.427040892400555 0.3153410188802089  C 21.572505929953824 0.2860691679687477  21.726531312966074 0.2727433216145793  21.876772325994324 0.2937453450520877  C 22.031445297363277 0.31462454427083725  22.10191124176579 0.3244500839843738  22.231773384011017 0.3679484615885448  C 22.348703966952254 0.4071277044270877  22.373717146639738 0.41263407877604175  22.486418121803982 0.4754150019531286  C 22.59891674640448 0.5424536477864592  22.701438420343575 0.6204027194010375  22.805154110839826 0.7227517981770859  L 22.99402795763051 0.9479197714843793  L 27.54964554425602 8.579538406901046  C 27.652915996959322 8.809721488281252  27.71389070465644 9.019066311848954  27.73267082750355 9.215883615885417  C 27.75620668774413 9.408463667968741  27.74206090405273 9.571771869140624  27.69988655728427 9.70570586588542  C 27.657752686678787 9.839598951822913  27.58259171912729 9.965304093098968  27.469910951793338 10.078358890624997  C 27.35737185102983 10.195487174479165  27.249507535333795 10.28770371419271  27.14617636838601 10.350464166666674  C 27.03835323800352 10.42155986979996  26.925479291476794 10.484491984303645  26.80847814402077 10.538745554687504  L 26.56449839115767 10.65603760416667  C 26.52232404438921 10.67691680338542  26.494153875244134 10.685309455078123  26.470597746670794 10.685309455078123  L 17.983275611661025 12.590189682291662  C 17.406211705255682 12.669673995442718  16.946584273326508 12.657207857421875  16.599313829678632 12.560917861979174  C 16.252185052601202 12.464627835937506  16.01625969315961 12.233134690755207  15.91772477001952 12.069805988281246  C 15.814616221968206 11.906641082031248  15.771166936567809 11.799399688802092  15.752447497713934 11.569994463541661  C 15.736075585560178 11.369349321614587  15.74908812744141 11.277357959635424  15.772684701926478 11.181067933593756  C 15.796038449684849 11.084777907552091  15.85332997780539 10.919770729817705  15.895504294322604 10.86112470507813  L 16.941767821688547 8.642237477864589  C 15.21988519644441 8.010129520833337  13.5825535850497 7.6039674238281245  12.020160382812508 7.4324303365885385  C 10.462522917968748 7.260729514322918  9.14425110491389 7.260729514322918  8.069837616233123 7.4324303365885385  C 6.995363413307871 7.603967393229169  5.977290323419761 7.9222116451822915  5.0249274405406545 8.382782545572914  C 4.072564557661587 8.843189680338545  3.317028724587177 9.303760550130201  2.763500648171164 9.768445878255212  C 2.209810697354411 10.233110735677087  1.7078672823375456 10.739677286458326  1.2574478144753052 11.29653818229167  Z " fill-rule="nonzero" fill="#ffffff" stroke="none" transform="matrix(1 0 0 1 344 113 )" />
  </g>
</svg>