<?xml version="1.0" encoding="utf-8"?>
<svg version="1.1" xmlns:xlink="http://www.w3.org/1999/xlink" width="11px" height="18px" xmlns="http://www.w3.org/2000/svg">
  <g transform="matrix(1 0 0 1 -7 -13 )">
    <path d="M 10.411739908854166 17.27103515625  C 10.440296223958336 17.018683593749998  10.326070963541671 16.79438671875  10.154733072916667 16.654218750000002  L 2.929895833333334 9.532705078125002  C 2.644332682291667 9.252333984375  2.644332682291667 8.775703125000001  2.929895833333334 8.467294921875  L 10.211845703125004 1.3177441406250006  C 10.525965169270833 1.0373730468750004  10.554521484375002 0.5607421875000007  10.268958333333336 0.25233398437500054  C 10.126176757812502 0.084111328125  9.926282552083332 0  9.697832031250002 0  C 9.469381510416667 0  9.269469401041667 0.084111328125  9.126687825520833 0.252333984375  L 8.955349934895834 0.42055664062500003  L 0.7595979817708328 8.495332031250001  C 0.4740348307291662 8.775703125  0.4740348307291662 9.252333984375  0.7595979817708328 9.560742187499999  L 9.126687825520833 17.775703125  C 9.269469401041667 17.915888671875  9.440807291666665 18  9.640701497395835 18  C 10.069046223958333 18  10.411739908854166 17.6635546875  10.411739908854166 17.27103515625  Z " fill-rule="nonzero" fill="#333333" stroke="none" transform="matrix(1 0 0 1 7 13 )" />
  </g>
</svg>