<?xml version="1.0" encoding="utf-8"?>
<svg version="1.1" xmlns:xlink="http://www.w3.org/1999/xlink" width="9px" height="14px" xmlns="http://www.w3.org/2000/svg">
  <g transform="matrix(1 0 0 1 -364 -78 )">
    <path d="M 0.4813037109374999 13.43302734375  C 0.4579394531249972 13.23675390625  0.5513964843749971 13.06230078125  0.6915820312499995 12.95328125  L 6.6028125 7.414326171875  C 6.836455078124999 7.196259765625  6.836455078124999 6.825546875000001  6.6028125 6.5856738281250005  L 0.644853515624997 1.0249121093750004  C 0.3878466796875 0.8068457031250004  0.36448242187499924 0.4361328125000005  0.5981249999999976 0.19625976562500044  C 0.7149462890624992 0.06541992187500001  0.8784960937500014 0  1.0654101562499991 0  C 1.2523242187499992 0  1.4158886718750003 0.06541992187500001  1.5327099609375008 0.196259765625  L 1.6728955078125003 0.327099609375  L 8.378510742187501 6.60748046875  C 8.6121533203125 6.825546875000001  8.6121533203125 7.196259765625  8.378510742187501 7.4361328124999995  L 1.5327099609375008 13.825546875  C 1.4158886718750003 13.934580078125  1.2757031250000008 14  1.1121533203124987 14  C 0.7616894531250007 14  0.4813037109374999 13.7383203125  0.4813037109374999 13.43302734375  Z " fill-rule="nonzero" fill="#333333" stroke="none" transform="matrix(1 0 0 1 364 78 )" />
  </g>
</svg>