<?xml version="1.0" encoding="utf-8"?>
<svg version="1.1" xmlns:xlink="http://www.w3.org/1999/xlink" width="34px" height="32px" xmlns="http://www.w3.org/2000/svg">
  <g transform="matrix(1 0 0 1 -18 -156 )">
    <path d="M 34 29.829787234042552  L 34 5.361702127659575  C 34 4.188164893617022  33.0470703125 3.234042553191489  31.875 3.234042553191489  L 27.658203125 3.234042553191489  C 27.658203125 1.4720744680851063  26.23046875 0.0425531914893617  24.470703125 0.0425531914893617  L 23.939453125 0.0425531914893617  C 22.1796875 0.0425531914893617  20.751953125 1.4720744680851063  20.751953125 3.234042553191489  L 13.28125 3.234042553191489  C 13.28125 1.4720744680851063  11.853515625 0.0425531914893617  10.09375 0.0425531914893617  L 9.5625 0.0425531914893617  C 7.802734375 0.0425531914893617  6.375 1.4720744680851063  6.375 3.234042553191489  L 2.125 3.234042553191489  C 0.9529296875 3.234042553191489  0 4.188164893617022  0 5.361702127659575  L 0 29.829787234042552  C 0 31.003324468085108  0.9529296875 31.95744680851064  2.125 31.829787234042552  L 31.875 31.829787234042552  C 33.0470703125 31.95744680851064  34 31.003324468085108  34 29.829787234042552  Z M 2.21 14  L 31.790000000000003 14  L 31.790000000000003 28.76595744680851  C 31.875 29.35438829787234  31.400195312500003 29.829787234042552  30.8125 29.78723404255319  L 3.1875 29.78723404255319  C 2.5998046875 29.829787234042552  2.125 29.35438829787234  2.21 28.76595744680851  L 2.21 14  Z M 3.23 16  L 3.23 21.4468085106383  L 11.729999999999999 21.4468085106383  L 11.729999999999999 16  L 3.23 16  Z M 3.23 22.29787234042553  L 3.23 27.574468085106382  L 11.729999999999999 27.574468085106382  L 11.729999999999999 22.29787234042553  L 3.23 22.29787234042553  Z M 12.75 16  L 12.75 21.4468085106383  L 21.25 21.4468085106383  L 21.25 16  L 12.75 16  Z M 27.658203125 5.446808510638298  L 30.8125 5.446808510638298  C 31.400195312500003 5.361702127659575  31.875 5.837101063829787  31.790000000000003 6.425531914893617  L 31.790000000000003 12  L 2.21 12  L 2.21 6.425531914893617  C 2.125 5.837101063829787  2.5998046875 5.361702127659575  3.1875 5.446808510638298  L 6.375 5.446808510638298  L 6.375 6.425531914893617  C 6.375 8.1875  7.802734375 9.617021276595745  9.5625 9.617021276595745  L 10.09375 9.617021276595745  C 11.853515625 9.617021276595745  13.28125 8.1875  13.28125 6.425531914893617  L 13.28125 5.446808510638298  L 20.751953125 5.446808510638298  L 20.751953125 6.159574468085107  C 20.751953125 8.06781914893617  22.29921875 9.617021276595745  24.205078125 9.617021276595745  C 26.1109375 9.617021276595745  27.658203125 8.06781914893617  27.658203125 6.159574468085107  L 27.658203125 5.446808510638298  Z M 12.75 22.29787234042553  L 12.75 27.574468085106382  L 21.25 27.574468085106382  L 21.25 22.29787234042553  L 12.75 22.29787234042553  Z M 22.27 22.29787234042553  L 22.27 27.574468085106382  L 30.77 27.574468085106382  L 30.77 22.29787234042553  L 22.27 22.29787234042553  Z M 9.828125 7.48936170212766  C 9.094335937499999 7.48936170212766  8.5 6.894281914893617  8.5 6.159574468085107  L 8.5 3.5  C 8.5 2.765292553191489  9.094335937499999 2.1702127659574466  9.828125 2.1702127659574466  C 10.561914062500001 2.1702127659574466  11.15625 2.765292553191489  11.22 3.5  L 11.22 6.159574468085107  C 11.15625 6.894281914893617  10.561914062500001 7.48936170212766  9.828125 7.48936170212766  Z M 24.205078125 7.48936170212766  C 23.4712890625 7.48936170212766  22.876953125 6.894281914893617  22.78 6.159574468085107  L 22.78 3.5  C 22.876953125 2.765292553191489  23.4712890625 2.1702127659574466  24.205078125 2.1702127659574466  C 24.9388671875 2.1702127659574466  25.533203125 2.765292553191489  25.5 3.5  L 25.5 6.159574468085107  C 25.533203125 6.894281914893617  24.9388671875 7.48936170212766  24.205078125 7.48936170212766  Z M 22.27 16  L 22.27 21.4468085106383  L 30.77 21.4468085106383  L 30.77 16  L 22.27 16  Z M 29.07 19.74468085106383  L 23.799999999999997 19.74468085106383  L 23.799999999999997 17.70212765957447  L 29.07 17.70212765957447  L 29.07 19.74468085106383  Z M 29.07 26.04255319148936  L 23.799999999999997 26.04255319148936  L 23.799999999999997 23.829787234042552  L 29.07 23.829787234042552  L 29.07 26.04255319148936  Z M 19.549999999999997 26.04255319148936  L 14.45 26.04255319148936  L 14.45 23.829787234042552  L 19.549999999999997 23.829787234042552  L 19.549999999999997 26.04255319148936  Z M 19.549999999999997 19.74468085106383  L 14.45 19.74468085106383  L 14.45 17.70212765957447  L 19.549999999999997 17.70212765957447  L 19.549999999999997 19.74468085106383  Z M 10.2 26.04255319148936  L 4.93 26.04255319148936  L 4.93 23.829787234042552  L 10.2 23.829787234042552  L 10.2 26.04255319148936  Z M 10.2 19.74468085106383  L 4.93 19.74468085106383  L 4.93 17.70212765957447  L 10.2 17.70212765957447  L 10.2 19.74468085106383  Z " fill-rule="nonzero" fill="#000000" stroke="none" transform="matrix(1 0 0 1 18 156 )" />
  </g>
</svg>